<?xml version="1.0" encoding="utf-8"?>
<!-- Generator: Adobe Illustrator 14.0.0, SVG Export Plug-In . SVG Version: 6.00 Build 43363)  -->
<!DOCTYPE svg PUBLIC "-//W3C//DTD SVG 1.1//EN" "http://www.w3.org/Graphics/SVG/1.1/DTD/svg11.dtd">
<svg version="1.1" id="Layer_1" xmlns="http://www.w3.org/2000/svg" xmlns:xlink="http://www.w3.org/1999/xlink" x="0px" y="0px"
	 width="30px" height="32px" viewBox="0 -1 30 32" enable-background="new 0 -1 30 32" xml:space="preserve">
<g>
	<path fill="#0564A0" d="M23.788,25.477l-4.2-6.766H10.99c-0.764,0-1.479-0.33-1.965-0.904c-0.377-0.445-0.584-1.006-0.584-1.58
		V8.282c0-1.167,0.826-2.147,1.935-2.416C9.029,5.558,8.022,4.378,8.022,2.972C8.022,1.333,9.39,0,11.07,0
		c1.683,0,3.051,1.333,3.051,2.972c0,1.369-0.955,2.525-2.252,2.868c1.168,0.227,2.051,1.235,2.051,2.441v2.13h4.702
		c0.919,0,1.668,0.734,1.668,1.637s-0.749,1.637-1.668,1.637H13.92v0.576h6.198c0.265,0,0.526,0.045,0.781,0.137
		c0.425,0.148,0.793,0.42,1.062,0.785c0.073,0.102,0.137,0.201,0.192,0.314l3.254,5.237l1.033-0.6
		c0.69-0.441,1.791-0.242,2.279,0.479c0.249,0.365,0.336,0.803,0.245,1.232c-0.089,0.436-0.35,0.807-0.729,1.045L23.788,25.477
		L23.788,25.477z M10.99,6.937c-0.775,0-1.406,0.604-1.406,1.345v7.945c0,0.309,0.107,0.598,0.311,0.84
		c0.269,0.316,0.668,0.5,1.096,0.5h9.232l3.949,6.363l3.475-2.018c0.098-0.063,0.176-0.172,0.202-0.301
		c0.025-0.121,0.001-0.248-0.071-0.354c-0.155-0.229-0.506-0.297-0.748-0.143l-2.006,1.166l-3.861-6.221
		c-0.054-0.1-0.087-0.152-0.123-0.203c-0.127-0.174-0.309-0.307-0.519-0.38c-0.136-0.048-0.269-0.071-0.402-0.071h-7.34v-2.865
		h5.844c0.29,0,0.527-0.221,0.527-0.492s-0.237-0.492-0.527-0.492h-5.844V8.282c0-0.741-0.632-1.345-1.406-1.345H10.99L10.99,6.937z
		 M11.07,1.145c-1.051,0-1.906,0.819-1.906,1.827s0.855,1.827,1.906,1.827c1.053,0,1.91-0.819,1.91-1.827S12.123,1.145,11.07,1.145
		L11.07,1.145z"/>
	<path fill="#0564A0" d="M11.163,30C5.559,30,1,25.701,1,20.418c0-0.576,0.061-1.178,0.181-1.783
		c0.576-2.881,2.576-5.403,5.35-6.747l0.82-0.396v3.438l-0.254,0.169c-1.373,0.92-2.346,2.266-2.738,3.79
		c-0.128,0.498-0.192,1.012-0.192,1.529c0,3.605,3.138,6.537,6.996,6.537c2.789,0,5.63-2.824,6.673-4.732
		c0.461-0.844,0.477-1.33,0.411-1.432v-0.002l0.962-0.615l0,0l1.764,2.768l-0.083,0.258C19.581,27.268,15.673,30,11.163,30
		L11.163,30z M6.209,13.369c-2.025,1.252-3.461,3.25-3.908,5.491c-0.108,0.539-0.159,1.049-0.159,1.559
		c0,4.652,4.047,8.438,9.021,8.438c3.855,0,7.333-2.354,8.556-5.758l-0.591-0.928c-0.081,0.193-0.179,0.395-0.292,0.602
		c-1.207,2.213-4.387,5.328-7.673,5.328c-4.487,0-8.138-3.445-8.138-7.682c0-0.615,0.078-1.225,0.23-1.816
		c0.438-1.699,1.482-3.208,2.954-4.276V13.369L6.209,13.369z"/>
</g>
</svg>
