<?xml version="1.0" encoding="utf-8"?>
<!-- Generator: Adobe Illustrator 14.0.0, SVG Export Plug-In . SVG Version: 6.00 Build 43363)  -->
<!DOCTYPE svg PUBLIC "-//W3C//DTD SVG 1.1//EN" "http://www.w3.org/Graphics/SVG/1.1/DTD/svg11.dtd">
<svg version="1.1" id="Layer_1" xmlns="http://www.w3.org/2000/svg" xmlns:xlink="http://www.w3.org/1999/xlink" x="0px" y="0px"
	 width="32px" height="32px" viewBox="-1 -1 32 32" enable-background="new -1 -1 32 32" xml:space="preserve">
<g id="surface1_2_">
	<path fill="#0564A0" d="M5.25,0C4.188,0,3.375,0.813,3.375,1.875v7.187C1.669,8.535,0.058,8.125-1,8.125v1.25
		c1.003,0,2.656,0.459,4.375,0.996v3.694c-1.706-0.53-3.317-0.94-4.375-0.94v1.25c1.003,0,2.656,0.459,4.375,0.996v3.694
		C1.669,18.535,0.058,18.125-1,18.125v1.248c1.003,0,2.656,0.459,4.375,0.996v7.755C3.375,29.188,4.188,30,5.25,30h17.5
		c1.063,0,1.875-0.813,1.875-1.876v-5.881l-1.25-0.369v6.25c0,0.374-0.249,0.623-0.625,0.623H5.25c-0.376,0-0.625-0.249-0.625-0.623
		V1.875c0-0.376,0.249-0.625,0.625-0.625h17.5c0.376,0,0.625,0.249,0.625,0.625v7.402c-1.932-0.62-3.734-1.15-5.003-1.15
		c-1.374,0-3.062,0.681-4.684,1.306c-1.5,0.562-3,1.19-4.063,1.19c-0.873,0-2.25-0.382-3.75-0.819v1.331
		c1.5,0.435,2.813,0.742,3.75,0.742c1.313,0,2.866-0.625,4.492-1.25c1.501-0.625,3.07-1.25,4.258-1.25s3.18,0.625,5.117,1.25
		c2.124,0.625,4.133,1.25,5.508,1.25v-1.25c-0.98,0-2.674-0.481-4.375-0.976V1.875C24.625,0.812,23.813,0,22.752,0H5.25z
		 M18.375,13.125c-1.375,0-3.062,0.684-4.687,1.309c-1.5,0.561-3,1.19-4.063,1.19c-0.873,0-2.25-0.382-3.75-0.819v1.33
		c1.5,0.438,2.813,0.742,3.75,0.742c1.313,0,2.866-0.625,4.492-1.251c1.501-0.625,3.07-1.25,4.258-1.25s3.18,0.625,5.117,1.25
		c2.124,0.626,4.133,1.251,5.508,1.251v-1.251c-1.126,0-3.18-0.629-5.12-1.193C21.759,13.745,19.749,13.125,18.375,13.125z
		 M18.375,18.125c-1.375,0-3.062,0.684-4.687,1.307c-1.5,0.563-3,1.193-4.063,1.193c-0.873,0-2.25-0.383-3.75-0.82v1.326
		c1.5,0.441,2.813,0.746,3.75,0.746c1.313,0,2.866-0.627,4.492-1.249c1.501-0.626,3.07-1.253,4.258-1.253
		c1.499,0,3.366,0.688,5.117,1.253c2.124,0.622,4.133,1.249,5.508,1.249v-1.249c-1.126,0-3.18-0.631-5.12-1.195
		C21.759,18.742,19.749,18.125,18.375,18.125z"/>
</g>
</svg>
