<?xml version="1.0" encoding="utf-8"?>
<!-- Generator: Adobe Illustrator 14.0.0, SVG Export Plug-In . SVG Version: 6.00 Build 43363)  -->
<!DOCTYPE svg PUBLIC "-//W3C//DTD SVG 1.1//EN" "http://www.w3.org/Graphics/SVG/1.1/DTD/svg11.dtd">
<svg version="1.1" id="Layer_1" xmlns="http://www.w3.org/2000/svg" xmlns:xlink="http://www.w3.org/1999/xlink" x="0px" y="0px"
	 width="32px" height="32px" viewBox="0 0 32 32" enable-background="new 0 0 32 32" xml:space="preserve">
<g id="surface1">
	<path fill="#0564A0" d="M11.848,0.001c-0.029,0.005-0.061,0.014-0.087,0.022c-0.253,0.047-0.458,0.237-0.531,0.49
		c-0.071,0.255,0.002,0.527,0.191,0.706c0.498,0.501,0.525,0.72,0.489,0.934c-0.033,0.214-0.234,0.537-0.531,0.933
		c-0.295,0.397-0.697,0.864-0.81,1.543c-0.11,0.679,0.167,1.458,0.852,2.151c0.272,0.276,0.708,0.276,0.98,0
		c0.272-0.277,0.272-0.722,0-1c-0.496-0.501-0.524-0.718-0.491-0.934c0.036-0.213,0.26-0.538,0.555-0.933
		c0.295-0.396,0.678-0.863,0.787-1.542c0.113-0.68-0.166-1.458-0.851-2.151C12.26,0.066,12.055-0.013,11.848,0.001z M15.936,0.001
		c-0.027,0.005-0.057,0.014-0.086,0.022c-0.254,0.046-0.459,0.237-0.531,0.489C15.246,0.767,15.32,1.04,15.51,1.219
		c0.498,0.502,0.525,0.719,0.49,0.935c-0.035,0.214-0.238,0.537-0.531,0.933c-0.295,0.397-0.697,0.863-0.811,1.542
		c-0.109,0.679,0.17,1.458,0.854,2.15c0.271,0.277,0.709,0.277,0.98,0c0.268-0.277,0.268-0.722,0-1
		C15.994,5.277,15.965,5.061,16,4.845c0.035-0.213,0.258-0.538,0.555-0.933c0.293-0.397,0.676-0.863,0.787-1.542
		c0.109-0.68-0.166-1.458-0.852-2.15C16.35,0.066,16.145-0.013,15.936,0.001z M20.025,0.001c-0.029,0.005-0.061,0.014-0.086,0.022
		c-0.256,0.046-0.461,0.237-0.533,0.489C19.336,0.767,19.41,1.04,19.6,1.219c0.498,0.502,0.523,0.721,0.49,0.935
		c-0.035,0.214-0.238,0.537-0.533,0.933c-0.295,0.397-0.695,0.863-0.809,1.542c-0.113,0.679,0.166,1.458,0.852,2.15
		c0.271,0.277,0.707,0.277,0.979,0s0.271-0.722,0-1c-0.494-0.501-0.523-0.717-0.488-0.933c0.033-0.213,0.258-0.538,0.551-0.933
		c0.297-0.397,0.678-0.863,0.791-1.542c0.109-0.68-0.17-1.458-0.854-2.15C20.438,0.066,20.232-0.013,20.025,0.001z M3.734,8.364
		V9.06c0,4.563,2.421,8.542,6.005,10.728L6.48,31.103c-0.105,0.372,0.104,0.761,0.47,0.87c0.363,0.107,0.744-0.109,0.85-0.478
		l1.663-5.757h13.031l0.32,1.086c-0.807,0.484-1.363,1.371-1.363,2.39c0,1.529,1.229,2.779,2.727,2.779
		c1.5,0,2.727-1.252,2.727-2.779c0-1.528-1.227-2.78-2.727-2.78c-0.02,0-0.041,0-0.063,0l-1.852-6.623
		c3.588-2.184,6.004-6.185,6.004-10.751V8.364H3.734z M5.16,9.754h21.68c-0.244,3.919-2.459,7.299-5.645,9.079
		c-0.006,0.003-0.016-0.004-0.02,0c-0.049,0.022-0.09,0.056-0.131,0.088c-0.014,0.009-0.029,0.015-0.043,0.021
		C19.508,19.736,17.809,20.18,16,20.18c-1.787,0-3.458-0.439-4.942-1.217c-0.081-0.084-0.187-0.145-0.298-0.172
		C7.602,17,5.4,13.651,5.16,9.754z M10.975,20.461c1.536,0.709,3.232,1.107,5.025,1.107c1.785,0,3.475-0.404,5.004-1.107
		l1.109,3.888H9.846L10.975,20.461z M24.049,27.824c0.043-0.004,0.086,0,0.129,0c0.762,0,1.363,0.613,1.363,1.39
		c0,0.778-0.602,1.392-1.363,1.392s-1.363-0.615-1.363-1.392c0-0.564,0.322-1.042,0.789-1.261c0.148,0.016,0.299-0.024,0.426-0.109
		C24.037,27.844,24.041,27.824,24.049,27.824z"/>
</g>
</svg>
