<?xml version="1.0" encoding="utf-8"?>
<!-- Generator: Adobe Illustrator 14.0.0, SVG Export Plug-In . SVG Version: 6.00 Build 43363)  -->
<!DOCTYPE svg PUBLIC "-//W3C//DTD SVG 1.1//EN" "http://www.w3.org/Graphics/SVG/1.1/DTD/svg11.dtd">
<svg version="1.1" id="Layer_1" xmlns="http://www.w3.org/2000/svg" xmlns:xlink="http://www.w3.org/1999/xlink" x="0px" y="0px"
	 width="30px" height="30px" viewBox="0 0 30 30" enable-background="new 0 0 30 30" xml:space="preserve">
<g id="surface1">
	<path fill="#0564A0" stroke="#FFFFFF" stroke-width="0.25" d="M12.273,0.011c-0.097,0.02-0.186,0.061-0.265,0.122L0.274,8.608
		C0.05,8.766-0.049,9.049,0.022,9.314C0.096,9.579,0.328,9.77,0.601,9.791l7.17,0.652c0.021,0,0.042,0,0.062,0h3.912v6.519
		l1.304,1.08v-7.599h3.911c0.02,0,0.04,0,0.062,0l7.17-0.652c0.271-0.02,0.506-0.212,0.579-0.477
		c0.07-0.265-0.027-0.548-0.253-0.706L12.783,0.133C12.638,0.023,12.451-0.022,12.273,0.011z M12.396,2.129l3.504,7.009H8.892
		L12.396,2.129z M10.623,2.74L7.445,9.097l-4.97-0.448L10.623,2.74z M14.188,2.761l8.13,5.887l-4.972,0.448L14.188,2.761z
		 M25.76,13.05c-1.612,0-2.933,1.32-2.933,2.933c0,0.397,0.079,0.772,0.225,1.121c-0.538-0.515-1.281-0.782-2.017-0.732
		c-0.339,0.021-0.678,0.124-0.999,0.284l-6.58,3.321l-2.262-1.874c-0.364-0.304-0.81-0.473-1.264-0.49
		C9.478,17.595,9.015,17.726,8.627,18l-3.138,2.221H3.921c-1.072,0-1.956,0.884-1.956,1.955c0,0.23,0.049,0.446,0.123,0.652H0.661
		c-0.021,0-0.041,0-0.061,0c-0.337,0.031-0.594,0.313-0.591,0.652v2.608c0,0.358,0.293,0.653,0.652,0.653h1.304v2.608
		C1.965,29.707,2.258,30,2.617,30h2.607c0.358,0,0.651-0.293,0.651-0.652v-2.609H24.13v2.609c0,0.359,0.293,0.652,0.651,0.652h2.608
		c0.358,0,0.651-0.293,0.651-0.652v-2.609h1.304c0.362,0,0.655-0.291,0.655-0.651v-2.607c0-0.358-0.293-0.654-0.655-0.654h-1.467
		l-1.017-3.582l2.036-1.019c0.342-0.082,0.559-0.415,0.492-0.76c-0.065-0.344-0.391-0.575-0.736-0.524
		c-0.041,0.003-0.081,0.01-0.123,0.021c0.111-0.306,0.164-0.637,0.164-0.979C28.694,14.37,27.372,13.05,25.76,13.05z M25.76,14.353
		c0.909,0,1.631,0.724,1.631,1.63s-0.724,1.628-1.631,1.628c-0.905,0-1.629-0.724-1.629-1.628
		C24.131,15.076,24.854,14.353,25.76,14.353z M21.137,17.674c0.172-0.014,0.348,0.011,0.51,0.06
		c0.317,0.105,0.588,0.325,0.752,0.653c0.332,0.654,0.086,1.441-0.57,1.772l-5.297,2.666H3.921c-0.37,0-0.652-0.282-0.652-0.651
		c0-0.372,0.283-0.653,0.652-0.653h1.548c0.125,0.037,0.263,0.037,0.388,0h7.293c0.104,0.007,0.212-0.017,0.306-0.06l0.082-0.041
		h0.02c0.082-0.025,0.158-0.066,0.226-0.124l0.019-0.019c0.014-0.008,0.029-0.015,0.042-0.021l6.783-3.442
		C20.789,17.732,20.963,17.687,21.137,17.674z M23.643,18c0.338,0.354,0.767,0.621,1.242,0.773l-1.08,0.53
		C23.858,18.87,23.814,18.425,23.643,18z M9.87,18.916c0.173,0.008,0.349,0.066,0.489,0.184l1.344,1.121H7.751l1.63-1.161
		C9.529,18.955,9.696,18.909,9.87,18.916z M25.659,19.854l0.855,2.975H19.73L25.659,19.854z M1.313,24.132h27.381v1.304H1.313
		V24.132z M3.269,26.738h1.304v1.957H3.269V26.738z M25.436,26.738h1.304v1.957h-1.304V26.738z"/>
</g>
</svg>
