<?xml version="1.0" encoding="utf-8"?>
<!-- Generator: Adobe Illustrator 14.0.0, SVG Export Plug-In . SVG Version: 6.00 Build 43363)  -->
<!DOCTYPE svg PUBLIC "-//W3C//DTD SVG 1.1//EN" "http://www.w3.org/Graphics/SVG/1.1/DTD/svg11.dtd">
<svg version="1.1" id="Layer_1" xmlns="http://www.w3.org/2000/svg" xmlns:xlink="http://www.w3.org/1999/xlink" x="0px" y="0px"
	 width="30px" height="30px" viewBox="0 0 30 30" enable-background="new 0 0 30 30" xml:space="preserve">
<g id="surface1">
	<path fill="#0564A0" d="M15,0c-3.045,0-5.809,0.869-7.851,2.323C5.107,3.777,3.772,5.859,3.772,8.182s1.335,4.405,3.377,5.86
		c0.764,0.545,1.642,0.998,2.588,1.363c-1.253,0.207-2.404,0.49-3.399,0.83c-1.132,0.39-2.087,0.86-2.785,1.429
		c-0.699,0.567-1.184,1.283-1.184,2.109v3.666c0,1.508,1.061,3.151,3.136,4.411C7.58,29.108,10.699,30,15,30
		c4.305,0,7.423-0.905,9.495-2.173s3.137-2.9,3.137-4.39v-3.667c0-0.825-0.484-1.542-1.185-2.108
		c-0.7-0.568-1.653-1.038-2.784-1.429c-0.996-0.341-2.146-0.623-3.399-0.831c0.945-0.364,1.823-0.817,2.586-1.363
		c2.044-1.454,3.379-3.537,3.379-5.859S24.894,3.775,22.85,2.32C20.809,0.869,18.045,0,15,0z M15,1.364
		c2.769,0,5.249,0.806,7.019,2.066c1.768,1.26,2.807,2.933,2.807,4.751s-1.038,3.492-2.807,4.75C20.249,14.193,17.769,15,15,15
		s-5.249-0.807-7.018-2.067c-1.769-1.259-2.807-2.932-2.807-4.75S6.214,4.69,7.982,3.431C9.751,2.17,12.231,1.364,15,1.364z
		 M15.132,3.516c-0.038,0.005-0.074,0.011-0.11,0.021c-0.087,0.021-0.166,0.056-0.24,0.108L9.604,6.882
		C9.278,7.088,9.186,7.514,9.396,7.831c0.211,0.317,0.649,0.408,0.977,0.203l5.175-3.238c0.299-0.155,0.441-0.496,0.34-0.808
		C15.784,3.672,15.466,3.476,15.132,3.516z M19.079,4.73c-0.113,0.018-0.217,0.061-0.308,0.127l-8.289,5.199
		c-0.233,0.12-0.379,0.357-0.377,0.613c0.003,0.256,0.154,0.487,0.392,0.602c0.236,0.115,0.519,0.088,0.729-0.064l8.29-5.199
		c0.284-0.151,0.425-0.477,0.336-0.782c-0.089-0.307-0.382-0.512-0.709-0.496C19.123,4.73,19.102,4.73,19.079,4.73z M19.935,7.905
		c-0.111,0.011-0.215,0.048-0.308,0.106l-5.176,3.259c-0.244,0.117-0.395,0.36-0.389,0.624c0.003,0.263,0.163,0.5,0.413,0.609
		c0.247,0.11,0.537,0.066,0.743-0.103l5.175-3.24c0.282-0.167,0.407-0.506,0.294-0.809C20.579,8.048,20.264,7.862,19.935,7.905z
		 M15,16.364c3.226,0,6.148,0.446,8.203,1.15c1.027,0.351,1.838,0.783,2.346,1.194c0.508,0.41,0.68,0.762,0.68,1.064
		c0,0.306-0.174,0.656-0.68,1.067c-0.508,0.41-1.318,0.841-2.346,1.193c-2.055,0.703-4.977,1.151-8.203,1.151
		s-6.148-0.448-8.202-1.151c-1.027-0.352-1.839-0.783-2.346-1.193c-0.508-0.411-0.68-0.762-0.68-1.067
		c0-0.303,0.173-0.654,0.68-1.064c0.507-0.411,1.318-0.842,2.346-1.194C8.852,16.811,11.774,16.364,15,16.364z M15,17.728
		c-2.166,0-4.134,0.146-5.592,0.405c-0.729,0.128-1.321,0.29-1.798,0.49c-0.239,0.099-0.444,0.197-0.636,0.362
		C6.782,19.15,6.58,19.429,6.58,19.773c0,0.346,0.203,0.623,0.395,0.788s0.397,0.264,0.636,0.362
		c0.477,0.201,1.069,0.362,1.798,0.49c1.458,0.259,3.426,0.406,5.592,0.406s4.134-0.147,5.592-0.406
		c0.729-0.128,1.321-0.289,1.799-0.49c0.238-0.099,0.444-0.197,0.637-0.362c0.191-0.165,0.394-0.442,0.394-0.788
		c0-0.347-0.202-0.623-0.394-0.788c-0.192-0.165-0.398-0.264-0.637-0.362c-0.478-0.2-1.069-0.362-1.799-0.49
		C19.134,17.874,17.166,17.728,15,17.728z M15,19.091c2.097,0,3.993,0.148,5.329,0.383c0.523,0.094,0.871,0.195,1.184,0.299
		c-0.313,0.104-0.66,0.205-1.184,0.298c-1.336,0.238-3.232,0.384-5.329,0.384s-3.993-0.146-5.329-0.384
		c-0.523-0.093-0.872-0.193-1.185-0.298c0.313-0.104,0.661-0.205,1.185-0.299C11.007,19.237,12.903,19.091,15,19.091z M3.771,22.031
		c0.678,0.498,1.542,0.927,2.566,1.278c2.265,0.776,5.302,1.235,8.662,1.235c3.361,0,6.398-0.459,8.664-1.235
		c1.023-0.352,1.889-0.78,2.565-1.278v1.406c0,0.808-0.685,2.122-2.479,3.218c-1.793,1.094-4.652,1.98-8.75,1.98
		c-4.101,0-6.96-0.872-8.75-1.959c-1.79-1.09-2.478-2.392-2.478-3.239L3.771,22.031L3.771,22.031z"/>
</g>
</svg>
