<?xml version="1.0" encoding="utf-8"?>
<!-- Generator: Adobe Illustrator 14.0.0, SVG Export Plug-In . SVG Version: 6.00 Build 43363)  -->
<!DOCTYPE svg PUBLIC "-//W3C//DTD SVG 1.1//EN" "http://www.w3.org/Graphics/SVG/1.1/DTD/svg11.dtd">
<svg version="1.1" id="Layer_1" xmlns="http://www.w3.org/2000/svg" xmlns:xlink="http://www.w3.org/1999/xlink" x="0px" y="0px"
	 width="30px" height="30px" viewBox="0 -6.432 30 30" enable-background="new 0 -6.432 30 30" xml:space="preserve">
<g>
	<path fill="#0564A0" d="M15-4.825c7.385,0,13.393,6.008,13.393,13.393c0,7.385-6.008,13.393-13.393,13.393
		S1.607,15.953,1.607,8.568C1.607,1.183,7.615-4.825,15-4.825 M15-6.432c-8.284,0-15,6.716-15,15c0,8.285,6.716,15,15,15
		c8.287,0,15-6.715,15-15C30,0.284,23.285-6.432,15-6.432L15-6.432z"/>
</g>
<g>
	<path fill="#0564A0" d="M22.979,3.257H9.491c-0.278,0-0.504,0.227-0.504,0.502c0,0.278,0.226,0.501,0.504,0.501h6.177v0.666
		c0.282-0.026,0.57-0.043,0.879-0.043v0c0.086,0,0.169,0.009,0.257,0.014V4.26h6.176c0.275,0,0.502-0.224,0.502-0.501
		C23.481,3.483,23.253,3.257,22.979,3.257z"/>
	<g>
		<path fill="none" d="M12.735,8.215l0.549,0.099l0.051,0.556c0.083,0.904,0.957,2.679,2.603,2.679h3.344
			c0.478,0,0.898-0.132,1.218-0.363c-0.238,0.064-0.479,0.077-0.709,0.077h-0.76h-0.001c-1.16-0.002-2.171-0.899-2.577-2.283
			c-0.212-0.728-0.435-1.542-0.505-1.796l-0.012-0.049c-0.084-0.249-0.069-0.515,0.039-0.755l0.01-0.018l0.006-0.01
			c-0.081,0.005-0.164,0.014-0.248,0.022c-0.88,0.093-1.522,0.348-1.901,0.757l-0.219,0.234l-0.321-0.002l-2.463-0.008
			c-0.029,0.174-0.077,0.341-0.145,0.498L12.735,8.215z"/>
		<path fill="none" d="M20.917,9.709c-0.045-1.515-1.945-3.156-4.019-3.185c-0.107,0-0.207,0.061-0.256,0.159
			c-0.035,0.074-0.037,0.156-0.008,0.231c0.021,0.08,0.277,1.023,0.523,1.856c0.315,1.085,1.041,1.754,1.872,1.757
			c0,0,0.638,0,0.76,0c0.223,0,0.468-0.01,0.701-0.116C20.729,10.313,20.929,10.031,20.917,9.709z"/>
		<path fill="none" d="M8.692,5.577c-0.651,0-1.197,0.445-1.361,1.045C7.3,6.742,7.276,6.865,7.276,6.994
			c0,0.436,0.201,0.819,0.51,1.08c0.246,0.207,0.559,0.337,0.906,0.337c0.169,0,0.329-0.034,0.479-0.088
			C9.483,8.21,9.743,7.991,9.909,7.71c0.066-0.112,0.117-0.232,0.15-0.36c0.03-0.115,0.051-0.232,0.051-0.356
			c0-0.132-0.023-0.257-0.057-0.377C9.886,6.019,9.343,5.577,8.692,5.577z"/>
		<path fill="#0564A0" d="M22.725,11.833c-0.245-0.128-0.549-0.034-0.677,0.214c-0.401,0.699-0.638,0.787-1.518,0.826h-0.347
			c-0.976,0-3.442,0-5.167,0c-1.043,0-1.814,0-1.814,0c-0.277,0-0.502,0.224-0.502,0.502c-0.001,0.278,0.225,0.505,0.502,0.505
			c0.006-0.003,6.559-0.003,7.328-0.003c0.043,0,0.086,0.003,0.131,0.003c0.963,0,1.818-0.407,2.28-1.367
			C23.069,12.265,22.974,11.963,22.725,11.833z"/>
		<path fill="#0564A0" d="M15.938,12.281h3.344c1.44,0,2.595-0.969,2.595-2.351c0-1.944-2.421-4.184-5.075-4.323
			c-0.085-0.003-0.168-0.013-0.254-0.013c-0.316,0-0.605,0.019-0.879,0.047c-1.085,0.115-1.862,0.449-2.365,0.987l-2.468-0.009
			c0.021,0.123,0.034,0.248,0.034,0.375c0,0.122-0.013,0.241-0.031,0.358l2.463,0.008l0.321,0.002l0.219-0.234
			c0.379-0.41,1.021-0.664,1.901-0.757c0.084-0.008,0.167-0.017,0.248-0.022l-0.006,0.01l-0.01,0.018
			c-0.108,0.24-0.123,0.506-0.039,0.755l0.012,0.049c0.07,0.254,0.293,1.068,0.505,1.796c0.406,1.384,1.417,2.281,2.577,2.283h0.001
			h0.76c0.229,0,0.471-0.013,0.709-0.077c-0.319,0.231-0.74,0.363-1.218,0.363h-3.344c-1.646,0-2.52-1.774-2.603-2.679l-0.051-0.556
			l-0.549-0.099L10.693,7.85c-0.106,0.249-0.259,0.473-0.448,0.666l2.359,0.42C12.726,10.257,13.925,12.281,15.938,12.281z
			 M20.491,10.412c-0.233,0.106-0.479,0.116-0.701,0.116c-0.122,0-0.76,0-0.76,0c-0.831-0.002-1.557-0.672-1.872-1.757
			c-0.246-0.833-0.503-1.777-0.523-1.856c-0.029-0.075-0.027-0.157,0.008-0.231c0.049-0.098,0.148-0.159,0.256-0.159
			c2.073,0.028,3.974,1.669,4.019,3.185C20.929,10.031,20.729,10.313,20.491,10.412z"/>
		<path fill="#0564A0" d="M10.838,7.352c0.019-0.117,0.031-0.236,0.031-0.358c0-0.127-0.014-0.252-0.034-0.375
			c-0.18-1.022-1.07-1.801-2.143-1.801c-1.199,0-2.176,0.976-2.176,2.176c0,1.199,0.977,2.176,2.176,2.176
			c0.608,0,1.158-0.252,1.553-0.655c0.189-0.192,0.342-0.417,0.448-0.666C10.761,7.694,10.809,7.526,10.838,7.352z M10.06,7.35
			c-0.033,0.127-0.084,0.248-0.15,0.36c-0.166,0.281-0.426,0.5-0.737,0.613c-0.15,0.054-0.311,0.088-0.479,0.088
			c-0.348,0-0.66-0.13-0.906-0.337c-0.309-0.261-0.51-0.645-0.51-1.08c0-0.13,0.023-0.252,0.055-0.373
			c0.164-0.6,0.71-1.045,1.361-1.045c0.65,0,1.193,0.442,1.361,1.04c0.033,0.121,0.057,0.246,0.057,0.377
			C10.11,7.118,10.09,7.235,10.06,7.35z"/>
	</g>
</g>
</svg>
