<svg fill="none" height="48" viewBox="0 0 48 48" width="48" xmlns="http://www.w3.org/2000/svg"><path d="m24 7c-10.8085 0-16.14085.45634-18.46334.75248-.91036.11608-1.53666.89134-1.53666 1.80908l.00001 2.95764c-.00001.9549.33829 1.8758.99702 2.5671 1.86332 1.9553 6.26477 6.2506 12.58127 10.3935.5207.3415.8621.9022.9171 1.5225.5515 6.2233 1.0493 10.4619 1.3108 12.5329.1066.8439.825 1.4648 1.6757 1.4648.3374 0 .6673-.0999.9481-.2871l4.4275-2.9516c.7401-.4934 1.281-1.2241 1.4533-2.0967.2727-1.3814.6974-4.0093 1.163-8.661.0614-.6137.4012-1.1657.9172-1.5037 6.3329-4.1491 10.7456-8.4552 12.612-10.4136.6587-.6913.997-1.6122.997-2.567v-2.95775c0-.91773-.6263-1.69299-1.5367-1.80907-2.3224-.29614-7.6548-.75248-18.4633-.75248z" fill="#a6cfff"/></svg>