<?xml version="1.0" encoding="utf-8"?>
<!-- Generator: Adobe Illustrator 14.0.0, SVG Export Plug-In . SVG Version: 6.00 Build 43363)  -->
<!DOCTYPE svg PUBLIC "-//W3C//DTD SVG 1.1//EN" "http://www.w3.org/Graphics/SVG/1.1/DTD/svg11.dtd">
<svg version="1.1" id="Layer_1" xmlns="http://www.w3.org/2000/svg" xmlns:xlink="http://www.w3.org/1999/xlink" x="0px" y="0px"
	 width="30px" height="27.37px" viewBox="0 -3.692 30 27.37" enable-background="new 0 -3.692 30 27.37" xml:space="preserve">
<g>
	<path fill="#0564A0" d="M27.676,21.575c-0.297,0-0.536-0.24-0.536-0.536V0.564c0-0.296,0.239-0.536,0.536-0.536
		c0.296,0,0.535,0.239,0.535,0.536v20.475C28.211,21.335,27.972,21.575,27.676,21.575L27.676,21.575z"/>
	<path fill="#0564A0" d="M23.576,21.575c-0.297,0-0.536-0.24-0.536-0.536v-13.7c-1.372-0.152-2.705-0.854-3.999-1.534
		c-1.407-0.74-2.736-1.439-4.029-1.439c-1.296,0-2.626,0.7-4.035,1.44c-1.292,0.68-2.625,1.381-3.995,1.533v13.7
		c0,0.296-0.24,0.536-0.536,0.536c-0.296,0-0.536-0.24-0.536-0.536V6.834c0-0.296,0.239-0.536,0.536-0.536
		c1.295,0,2.624-0.7,4.031-1.44c1.462-0.769,2.973-1.564,4.534-1.564c1.558,0,3.067,0.795,4.528,1.563
		c1.408,0.741,2.739,1.441,4.036,1.441c0.296,0,0.535,0.239,0.535,0.536v14.205C24.111,21.335,23.872,21.575,23.576,21.575
		L23.576,21.575z"/>
	<path fill="#0564A0" d="M2.346,21.575c-0.296,0-0.536-0.24-0.536-0.536V0.564c0-0.296,0.24-0.536,0.536-0.536
		s0.536,0.239,0.536,0.536v20.475C2.882,21.335,2.642,21.575,2.346,21.575L2.346,21.575z"/>
	<path fill="#0564A0" d="M29.519,21.575H0.641c-0.296,0-0.536-0.24-0.536-0.536s0.24-0.536,0.536-0.536h28.878
		c0.297,0,0.536,0.24,0.536,0.536S29.815,21.575,29.519,21.575L29.519,21.575z"/>
	<path fill="#0564A0" d="M27.813,0.84H2.208C2,0.84,1.811,0.72,1.723,0.531L0.105-2.929C0.027-3.096,0.04-3.289,0.139-3.445
		C0.237-3.599,0.407-3.692,0.59-3.692h28.84c0.184,0,0.354,0.093,0.452,0.248c0.099,0.155,0.111,0.349,0.034,0.515l-1.618,3.461
		C28.211,0.72,28.021,0.84,27.813,0.84L27.813,0.84z M2.549-0.231h24.923l1.117-2.39H1.432L2.549-0.231L2.549-0.231z"/>
	<path fill="#0564A0" d="M19.741,21.045c-0.159,0-0.318-0.07-0.424-0.207c-0.181-0.234-0.138-0.57,0.095-0.752
		c1.484-1.15,1.871-2.735,1.155-4.641c-0.382,1.856-1.458,2.087-1.85,2.107c-0.999,0.046-1.944-0.891-2.017-2.061
		c-0.07-1.151,0.525-1.761,0.962-2.205c0.479-0.489,0.719-0.735,0.37-1.581c-0.13-0.317-0.313-0.615-0.512-0.871
		c0.117,1.464-0.975,2.09-2.277,2.839c-0.299,0.171-0.623,0.356-0.963,0.569c-0.899,0.558-0.752,1.016-0.136,2.089
		c0.225,0.391,0.438,0.761,0.504,1.145c0.097,1.146-0.495,1.559-0.752,1.685c-0.609,0.295-1.409,0.113-2.042-0.47
		c-0.707-0.652-1.242-1.917-0.619-3.508c0.326-0.831-0.246-1.56-0.879-2.073c0.052,0.79-0.206,1.342-0.474,1.916
		c-0.119,0.254-0.248,0.527-0.36,0.851c-0.615,1.782-0.343,3.207,0.81,4.233c0.222,0.196,0.241,0.534,0.044,0.755
		c-0.195,0.222-0.535,0.241-0.756,0.044c-1.465-1.304-1.859-3.214-1.11-5.381c0.126-0.364,0.268-0.672,0.401-0.957
		c0.363-0.776,0.583-1.245,0.111-2.434c-0.083-0.207-0.027-0.444,0.137-0.593c0.165-0.151,0.406-0.184,0.604-0.082
		c2.131,1.083,3.054,2.62,2.47,4.111c-0.537,1.369,0.131,2.129,0.347,2.329c0.314,0.289,0.677,0.378,0.845,0.295
		c0.126-0.061,0.186-0.28,0.161-0.587c-0.028-0.149-0.203-0.453-0.372-0.746c-0.477-0.83-1.364-2.375,0.499-3.532
		c0.352-0.219,0.686-0.411,0.996-0.589c1.688-0.968,2.195-1.26,1.359-3.071c-0.082-0.18-0.06-0.39,0.059-0.547
		c0.119-0.158,0.317-0.235,0.511-0.208c0.93,0.146,1.962,1.349,2.386,2.38c0.615,1.5-0.086,2.215-0.598,2.737
		c-0.39,0.398-0.698,0.713-0.657,1.391c0.039,0.629,0.498,1.061,0.892,1.056c0.521-0.027,1.043-0.97,0.961-2.978
		c-0.01-0.242,0.144-0.46,0.374-0.532c0.232-0.074,0.481,0.018,0.612,0.221c2.83,4.413,0.565,6.882-0.54,7.741
		C19.973,21.009,19.856,21.045,19.741,21.045L19.741,21.045z"/>
	<path fill="#0564A0" d="M29.471,23.677H0.689c-0.296,0-0.536-0.239-0.536-0.535c0-0.297,0.239-0.536,0.536-0.536h28.782
		c0.296,0,0.536,0.239,0.536,0.536C30.007,23.438,29.767,23.677,29.471,23.677L29.471,23.677z"/>
	<path fill="#0564A0" d="M0.641,23.65c-0.296,0-0.536-0.239-0.536-0.535v-2.076c0-0.296,0.24-0.536,0.536-0.536
		c0.296,0,0.536,0.24,0.536,0.536v2.076C1.176,23.411,0.937,23.65,0.641,23.65L0.641,23.65z"/>
	<path fill="#0564A0" d="M29.519,23.65c-0.296,0-0.535-0.239-0.535-0.535v-2.076c0-0.296,0.239-0.536,0.535-0.536
		c0.297,0,0.536,0.24,0.536,0.536v2.076C30.055,23.411,29.815,23.65,29.519,23.65L29.519,23.65z"/>
</g>
</svg>
