<?xml version="1.0" encoding="utf-8"?>
<!-- Generator: Adobe Illustrator 14.0.0, SVG Export Plug-In . SVG Version: 6.00 Build 43363)  -->
<!DOCTYPE svg PUBLIC "-//W3C//DTD SVG 1.1//EN" "http://www.w3.org/Graphics/SVG/1.1/DTD/svg11.dtd">
<svg version="1.1" id="Layer_1" xmlns="http://www.w3.org/2000/svg" xmlns:xlink="http://www.w3.org/1999/xlink" x="0px" y="0px"
	 width="30px" height="30px" viewBox="0 0 30 30" enable-background="new 0 0 30 30" xml:space="preserve">
<g id="surface1">
	<path fill="#0564A0" d="M26.344,0.502c-0.026,0.004-0.054,0.011-0.075,0.018c-0.279,0.062-0.477,0.31-0.469,0.591
		c0,1.123-0.527,1.74-1.5,2.347c-0.974,0.607-2.378,1.1-3.825,1.701c-1.446,0.601-2.944,1.324-4.106,2.532
		c-1.057,1.1-1.791,2.61-1.911,4.638c-1.083-0.081-1.719-0.411-2.476-0.794c-0.876-0.444-1.918-0.96-3.582-0.96
		c-1.026,0-2.008,0.591-2.943,1.459c-0.935,0.87-1.839,2.049-2.643,3.42C1.204,18.193,0,21.656,0,24.77
		c0,1.281,0.323,2.425,0.938,3.288C1.552,28.921,2.5,29.5,3.6,29.5c2.899,0,5.004-1.444,6.75-2.79
		c1.745-1.348,3.149-2.532,4.649-2.532s2.904,1.185,4.649,2.532c1.746,1.346,3.852,2.79,6.75,2.79c1.1,0,2.049-0.578,2.663-1.441
		C29.676,27.194,30,26.051,30,24.77c0-3.113-1.204-6.576-2.813-9.315c-0.804-1.37-1.708-2.55-2.644-3.42
		c-0.936-0.868-1.917-1.459-2.943-1.459c-1.664,0-2.705,0.517-3.582,0.96c-0.729,0.368-1.34,0.679-2.344,0.777
		c0.117-1.741,0.705-2.906,1.575-3.809c0.97-1.009,2.297-1.69,3.694-2.273c1.396-0.582,2.835-1.051,3.993-1.774
		C26.098,3.734,27,2.65,27,1.112c0.007-0.17-0.063-0.334-0.188-0.45C26.687,0.544,26.515,0.486,26.344,0.502z M8.4,11.757
		c1.432,0,2.143,0.37,3.019,0.814c0.877,0.443,1.917,0.961,3.581,0.961c0.059,0,0.112,0.002,0.169,0c0.007,0,0.012,0,0.019,0
		c1.555-0.036,2.554-0.535,3.394-0.961c0.877-0.444,1.587-0.814,3.02-0.814c0.52,0,1.301,0.37,2.118,1.127s1.659,1.868,2.419,3.16
		c1.519,2.582,2.662,5.92,2.662,8.725c0,1.084-0.276,2.009-0.713,2.623c-0.438,0.615-0.986,0.926-1.688,0.926
		c-2.501,0-4.296-1.219-6-2.533c-1.702-1.314-3.3-2.79-5.4-2.79c-2.1,0-3.696,1.476-5.399,2.79c-1.705,1.314-3.5,2.533-6,2.533
		c-0.702,0-1.252-0.311-1.688-0.926c-0.435-0.612-0.711-1.541-0.711-2.623c0-2.803,1.143-6.141,2.662-8.725
		c0.76-1.292,1.601-2.401,2.419-3.16S7.879,11.757,8.4,11.757z M22.2,15.897c-0.664,0-1.2,0.529-1.2,1.183
		c0,0.656,0.536,1.186,1.2,1.186c0.661,0,1.198-0.529,1.198-1.186C23.399,16.427,22.863,15.897,22.2,15.897z M7.2,16.489v1.774H5.4
		v1.772h1.8v1.776H9v-1.776h1.8v-1.772H9v-1.774H7.2z M19.8,18.264c-0.661,0-1.198,0.528-1.198,1.183
		c0,0.652,0.537,1.184,1.198,1.184c0.664,0,1.2-0.531,1.2-1.184C21,18.792,20.464,18.264,19.8,18.264z M24.601,18.264
		c-0.664,0-1.201,0.528-1.201,1.183c0,0.652,0.537,1.184,1.201,1.184c0.662,0,1.199-0.531,1.199-1.184
		C25.8,18.792,25.264,18.264,24.601,18.264z M22.2,20.63c-0.664,0-1.2,0.527-1.2,1.183c0,0.653,0.536,1.184,1.2,1.184
		c0.661,0,1.198-0.53,1.198-1.184C23.399,21.157,22.863,20.63,22.2,20.63z"/>
</g>
</svg>
