<?xml version="1.0" encoding="utf-8"?>
<!-- Generator: Adobe Illustrator 14.0.0, SVG Export Plug-In . SVG Version: 6.00 Build 43363)  -->
<!DOCTYPE svg PUBLIC "-//W3C//DTD SVG 1.1//EN" "http://www.w3.org/Graphics/SVG/1.1/DTD/svg11.dtd">
<svg version="1.1" id="Layer_1" xmlns="http://www.w3.org/2000/svg" xmlns:xlink="http://www.w3.org/1999/xlink" x="0px" y="0px"
	 width="30px" height="30px" viewBox="0 0 30 30" enable-background="new 0 0 30 30" xml:space="preserve">
<g id="surface1">
	<path fill="#0564A0" d="M14.988,0C13.34,0,11.99,1.35,11.99,3s1.349,3,2.998,3s2.998-1.35,2.998-3S16.637,0,14.988,0z M14.988,1.2
		c1,0,1.798,0.8,1.798,1.8s-0.8,1.8-1.798,1.8c-1,0-1.798-0.8-1.798-1.8S13.988,1.2,14.988,1.2z M11.748,6
		c-0.368,0-0.764,0.08-1.143,0.226V6.207l-0.037,0.019L6.521,7.594c-0.006,0-0.012,0-0.019,0C6.132,7.742,5.73,8.035,5.528,8.476
		L5.51,8.494C5.504,8.508,5.495,8.517,5.491,8.531L3.86,11.7v0.019c-0.422,0.778-0.268,1.786,0.449,2.325c0.007,0,0.012,0,0.019,0
		c0.881,0.617,2.155,0.345,2.679-0.619c0-0.007,0-0.012,0-0.019l1.274-2.476l1.368-0.543l-1.292,3.938c0,0.012,0,0.026,0,0.038
		c-0.211,0.738-0.077,1.371,0.131,1.856l-0.974,1.8l-3.579-0.262c-1.112-0.088-2.105,0.752-2.191,1.875
		c-0.086,1.113,0.751,2.125,1.874,2.212c0,0,1.263,0.08,2.529,0.169c0.633,0.045,1.263,0.098,1.743,0.13
		c0.24,0.018,0.435,0.028,0.58,0.038c0.073,0.005,0.145,0.018,0.187,0.018c0.021,0.002,0.023,0,0.038,0c0.014,0-0.021,0,0.056,0
		c0.806,0,1.508-0.469,1.854-1.161l0.019-0.019V21l0.842-1.912l0.899,0.732l-1.648,4.37v0.018c-0.239,0.591-0.136,1.196,0.168,1.688
		c-2.004,0.113-4.063,0.232-5.602,0.319c-1.012,0.056-1.859,0.099-2.473,0.131c-0.307,0.018-0.555,0.028-0.731,0.038
		c-0.177,0.008-0.312,0.016-0.279,0.016C0.813,26.399,0,27.214,0,28.2C0,29.185,0.813,30,1.799,30h22.183
		c0.498,0,0.963-0.147,1.35-0.412c0.254-0.174,0.461-0.381,0.635-0.638c0.002-0.005-0.002-0.014,0-0.018
		c0.174-0.255,0.295-0.531,0.355-0.843c0.033-0.157,0.057-0.319,0.057-0.486c0-0.158-0.025-0.302-0.057-0.449
		c-0.004-0.027-0.014-0.052-0.018-0.075c-0.002-0.012,0.004-0.025,0-0.038c-0.031-0.128-0.059-0.255-0.111-0.376
		c-0.021-0.052-0.051-0.1-0.076-0.148c-0.012-0.021-0.025-0.035-0.037-0.057c-0.166-0.309-0.395-0.56-0.674-0.768
		c0-0.008,0-0.013,0-0.019c0-0.013,0-0.025,0-0.037l2.941-13.745c0.008-0.019,0.014-0.037,0.018-0.056l1.443-1.444
		c0.195-0.18,0.246-0.466,0.129-0.703c-0.115-0.24-0.375-0.371-0.635-0.329c-0.137,0.019-0.264,0.086-0.357,0.188l-4.307,4.312
		c-0.178,0.145-0.262,0.376-0.207,0.603c0.051,0.223,0.227,0.398,0.447,0.45c0.227,0.052,0.457-0.032,0.602-0.209l1.311-1.312
		l-2.51,11.849c-0.098-0.013-0.197-0.037-0.301-0.037c-0.184,0-0.59,0.023-1.256,0.057c-0.664,0.031-1.559,0.073-2.604,0.131
		c-1.588,0.083-3.661,0.205-5.678,0.317c0.007-0.019,0.012-0.036,0.019-0.055c0.002-0.005-0.003-0.016,0-0.019l0.019-0.02
		l2.155-5.719h-0.018c0.331-0.832,0.073-1.758-0.62-2.287v-0.019l-2.061-1.649l0.937-3.132l0.449,0.713c0,0.008,0,0.013,0,0.019
		c0.324,0.487,0.869,0.863,1.518,0.863h3.542c1.088,0,1.982-0.982,1.799-2.082c-0.006-0.006-0.012-0.012-0.018-0.019
		c-0.178-0.887-0.957-1.5-1.836-1.5h-2.417l-1.686-2.719c-0.766-1.254-2.155-2.082-3.691-2.082h-0.787L11.748,6L11.748,6z
		 M11.748,7.2h0.787c1.101,0,2.107,0.614,2.66,1.519l1.855,3c0.112,0.18,0.311,0.286,0.524,0.281h2.753
		c0.311,0,0.584,0.226,0.656,0.524c0.057,0.342-0.246,0.676-0.598,0.676h-3.544c-0.182,0-0.354-0.107-0.505-0.319l-0.019-0.019
		l-1.125-1.838c-0.125-0.201-0.357-0.311-0.592-0.278c-0.234,0.033-0.429,0.201-0.494,0.429l-1.424,4.8
		c-0.073,0.232,0.002,0.482,0.188,0.637l2.398,1.913c0.007,0.007,0.011,0.012,0.018,0.018c0.255,0.193,0.37,0.553,0.226,0.918
		l-2.174,5.773c0,0.013,0,0.025,0,0.037c-0.103,0.349-0.389,0.525-0.75,0.525c-0.077,0-0.101,0-0.112,0h-0.019
		c-0.035-0.028-0.072-0.053-0.113-0.075c-0.429-0.178-0.684-0.685-0.524-1.067c0.007-0.008,0.012-0.013,0.019-0.018l1.798-4.803
		c0.089-0.241,0.014-0.513-0.187-0.675l-3.429-2.794c-0.239-0.237-0.785-0.71-0.506-1.688H9.499l1.686-5.138
		c0.075-0.22,0.015-0.464-0.155-0.625c-0.169-0.161-0.414-0.208-0.633-0.125L7.643,9.877c-0.136,0.051-0.25,0.153-0.319,0.281
		l-1.368,2.681l-0.019,0.019c-0.199,0.336-0.607,0.424-0.918,0.207c-0.22-0.181-0.274-0.479-0.112-0.769c0-0.007,0-0.012,0-0.019
		l1.686-3.243C6.6,9.015,6.608,8.996,6.612,8.977c0.045-0.113,0.12-0.167,0.3-0.244C6.923,8.729,6.916,8.719,6.93,8.714l4.047-1.369
		c0.012-0.005,0.025-0.012,0.038-0.019C11.228,7.247,11.527,7.2,11.748,7.2z M9.274,17.306l1.218,0.994l-0.955,2.193
		c-0.002,0.006-0.017-0.004-0.019,0v0.02c-0.143,0.255-0.503,0.485-0.768,0.485c-0.006,0-0.009,0-0.019,0
		c-0.04-0.002-0.099-0.015-0.168-0.019c-0.143-0.011-0.339-0.021-0.581-0.038c-0.48-0.032-1.128-0.087-1.761-0.131
		c-1.257-0.089-2.492-0.165-2.51-0.168c-0.004,0-0.015,0-0.019,0c-0.429-0.044-0.782-0.479-0.749-0.917
		c0.033-0.439,0.47-0.804,0.917-0.769l3.954,0.3l0.393,0.038l0.168-0.355L9.274,17.306z M23.98,26.399
		c0.086,0,0.164,0.003,0.244,0.02c0.006,0,0.014,0,0.02,0c0.072,0.016,0.141,0.047,0.205,0.074c0.004,0.003,0.016-0.002,0.02,0
		c0.275,0.12,0.498,0.343,0.619,0.619c0.002,0.005-0.002,0.015,0,0.019c0.023,0.068,0.059,0.132,0.074,0.206
		c0.018,0.085,0.018,0.174,0.018,0.264c0,0.084,0,0.163-0.018,0.243c0,0.005,0,0.015,0,0.018c-0.018,0.073-0.047,0.141-0.074,0.207
		c-0.002,0.004,0.002,0.015,0,0.019c-0.121,0.275-0.342,0.498-0.619,0.618c-0.148,0.063-0.314,0.093-0.486,0.093
		c-0.67,0-1.199-0.529-1.199-1.198c0-0.586,0.406-1.071,0.955-1.183C23.818,26.402,23.896,26.399,23.98,26.399z M21.865,26.493
		c-0.176,0.334-0.281,0.706-0.281,1.107c0,0.439,0.129,0.843,0.338,1.199H3.485c0.068-0.191,0.112-0.389,0.112-0.6
		c0-0.246-0.058-0.48-0.149-0.695c0.553-0.027,1.129-0.05,1.911-0.093c1.986-0.11,4.602-0.267,7.232-0.412
		c0.103,0,0.199-0.003,0.3-0.019c2.619-0.147,5.246-0.283,7.289-0.394C20.855,26.55,21.336,26.52,21.865,26.493z M1.799,27.601
		c0.338,0,0.6,0.262,0.6,0.6s-0.262,0.6-0.6,0.6c-0.167,0-0.323-0.061-0.431-0.169C1.26,28.523,1.2,28.365,1.2,28.2
		c0-0.166,0.061-0.324,0.168-0.432C1.476,27.661,1.633,27.601,1.799,27.601z"/>
</g>
</svg>
