<?xml version="1.0" encoding="utf-8"?>
<!-- Generator: Adobe Illustrator 14.0.0, SVG Export Plug-In . SVG Version: 6.00 Build 43363)  -->
<!DOCTYPE svg PUBLIC "-//W3C//DTD SVG 1.1//EN" "http://www.w3.org/Graphics/SVG/1.1/DTD/svg11.dtd">
<svg version="1.1" id="Layer_1" xmlns="http://www.w3.org/2000/svg" xmlns:xlink="http://www.w3.org/1999/xlink" x="0px" y="0px"
	 width="30px" height="30px" viewBox="0 0 30 30" enable-background="new 0 0 30 30" xml:space="preserve">
<g>
	<path fill="#0564A0" d="M15,2.5c6.893,0,12.5,5.607,12.5,12.5S21.893,27.5,15,27.5C8.107,27.5,2.5,21.893,2.5,15S8.107,2.5,15,2.5
		 M15,1C7.268,1,1,7.268,1,15c0,7.732,6.268,14,14,14c7.734,0,14-6.268,14-14C29,7.268,22.733,1,15,1L15,1z"/>
</g>
<g>
	<path fill="#0564A0" d="M10.994,20.012V9.989h2.024v3.945h3.965V9.989h2.024v10.023h-2.024v-4.383h-3.965v4.383H10.994z"/>
</g>
</svg>
