<?xml version="1.0" encoding="utf-8"?>
<!-- Generator: Adobe Illustrator 14.0.0, SVG Export Plug-In . SVG Version: 6.00 Build 43363)  -->
<!DOCTYPE svg PUBLIC "-//W3C//DTD SVG 1.1//EN" "http://www.w3.org/Graphics/SVG/1.1/DTD/svg11.dtd">
<svg version="1.1" id="Layer_1" xmlns="http://www.w3.org/2000/svg" xmlns:xlink="http://www.w3.org/1999/xlink" x="0px" y="0px"
	 width="30px" height="30px" viewBox="0 0 30 30" enable-background="new 0 0 30 30" xml:space="preserve">
<g>
	<path fill="#0564A0" d="M25.162,24.467c0.747-0.223,1.438-0.588,2.007-1.098c0.996-0.895,1.628-2.232,1.628-3.84v-7.277
		C29.493,11.98,30,11.265,30,10.423c0-1.069-0.814-1.951-1.8-1.951H1.8c-0.987,0-1.8,0.881-1.8,1.951c0,0.841,0.507,1.557,1.2,1.829
		v7.277c0,1.607,0.635,2.945,1.631,3.84c0.568,0.51,1.258,0.875,2.007,1.098 M1.8,9.772h26.4c0.333,0,0.599,0.291,0.599,0.65
		s-0.266,0.649-0.599,0.649H1.912c-0.061-0.019-0.125-0.025-0.188-0.021c-0.292-0.043-0.525-0.3-0.525-0.63
		C1.2,10.062,1.466,9.772,1.8,9.772z M2.4,12.375h25.2v7.154c0,1.252-0.458,2.178-1.199,2.844c-0.742,0.666-1.8,1.057-3.001,1.057
		H6.6c-1.203,0-2.257-0.391-3-1.057s-1.2-1.592-1.2-2.844V12.375z"/>
	<circle fill="none" stroke="#0564A0" stroke-width="0.75" cx="6.992" cy="7.453" r="1.92"/>
	<circle fill="none" stroke="#0564A0" stroke-width="0.75" cx="10.153" cy="8.131" r="1.242"/>
	<circle fill="none" stroke="#0564A0" stroke-width="0.75" cx="20.868" cy="8.131" r="1.242"/>
	<circle fill="none" stroke="#0564A0" stroke-width="0.75" cx="4.132" cy="8.472" r="0.94"/>
	<rect x="9.643" y="11.891" fill="#0564A0" width="1.473" height="11.711"/>
	<rect x="14.263" y="11.891" fill="#0564A0" width="1.474" height="11.711"/>
	<rect x="19.625" y="11.891" fill="#0564A0" width="1.473" height="11.711"/>
	<rect x="24.241" y="11.891" fill="#0564A0" width="1.473" height="11.711"/>
	<rect x="5.072" y="11.891" fill="#0564A0" width="1.473" height="11.711"/>
</g>
</svg>
