<?xml version="1.0" encoding="utf-8"?>
<!-- Generator: Adobe Illustrator 14.0.0, SVG Export Plug-In . SVG Version: 6.00 Build 43363)  -->
<!DOCTYPE svg PUBLIC "-//W3C//DTD SVG 1.1//EN" "http://www.w3.org/Graphics/SVG/1.1/DTD/svg11.dtd">
<svg version="1.1" id="Layer_1" xmlns="http://www.w3.org/2000/svg" xmlns:xlink="http://www.w3.org/1999/xlink" x="0px" y="0px"
	 width="32px" height="32px" viewBox="-1 -1 32 32" enable-background="new -1 -1 32 32" xml:space="preserve">
<path fill="#0564A0" d="M2.685-1C2.307-1,2-0.689,2-0.304v30.609C2,30.688,2.307,31,2.685,31h2.736h19.158h2.737
	C27.693,31,28,30.688,28,30.305V-0.304C28-0.689,27.693-1,27.316-1H2.685z M3.368,0.391h23.264v29.216h-1.368V5.957
	c0-0.385-0.307-0.696-0.685-0.696H5.421c-0.378,0-0.685,0.312-0.685,0.696v23.651H3.368V0.391z M12.947,1.783L11.579,3.87h2.737
	L12.947,1.783z M15.685,1.783l1.368,2.087l1.369-2.087H15.685z M6.105,6.653h8.211v22.955H6.105V6.653z M15.685,6.653h8.21v22.955
	h-8.21V6.653z"/>
</svg>
