<?xml version="1.0" encoding="utf-8"?>
<!-- Generator: Adobe Illustrator 14.0.0, SVG Export Plug-In . SVG Version: 6.00 Build 43363)  -->
<!DOCTYPE svg PUBLIC "-//W3C//DTD SVG 1.1//EN" "http://www.w3.org/Graphics/SVG/1.1/DTD/svg11.dtd">
<svg version="1.1" id="Layer_1" xmlns="http://www.w3.org/2000/svg" xmlns:xlink="http://www.w3.org/1999/xlink" x="0px" y="0px"
	 width="30px" height="30px" viewBox="0 -5.004 30 30" enable-background="new 0 -5.004 30 30" xml:space="preserve">
<g id="surface1_18_">
	<path fill="#0564A0" d="M18.002-5.004c-1.98,0-3.6,1.62-3.6,3.6c0,1.98,1.619,3.601,3.6,3.601c1.979,0,3.6-1.62,3.6-3.601
		C21.602-3.384,19.98-5.004,18.002-5.004z M18.002-3.804c1.333,0,2.398,1.065,2.398,2.399s-1.065,2.4-2.398,2.4
		s-2.398-1.066-2.398-2.4S16.669-3.804,18.002-3.804z M22.559,1.577c-0.404,0.007-0.813,0.078-1.201,0.244V1.84l-2.344,1.068
		c-0.687,0.305-1.131,0.839-1.462,1.369v0.019l-5.55,9.244c-1.059,0.626-1.799,1.731-1.799,3.056v2.14l-2.063,2.061H2.161
		c-1.058,0-2.069,0.75-2.156,1.875c-0.083,1.214,0.853,2.325,2.099,2.325h7.612c0.46,0,0.929-0.197,1.275-0.544l3.674-3.656h8.136
		v4.2H30v-1.2h-5.999v-9.6H30v-1.331l-0.057-0.133l-4.5-9.336c-0.002-0.004,0.002-0.015,0-0.02h-0.021
		C24.914,2.212,23.76,1.558,22.559,1.577z M22.596,2.76c0.248-0.005,0.484,0.047,0.713,0.131c0.457,0.168,0.846,0.502,1.049,0.976
		v0.038l4.369,9.092h-7.219l-1.763-3.844l-0.47-1.051l-0.58,0.994l-2.342,3.9h-2.552c-0.032,0-0.061,0.02-0.094,0.02l4.854-8.101
		c0.006-0.01,0.016-0.01,0.02-0.019c0.266-0.418,0.535-0.729,0.919-0.9h0.019l2.326-1.068C22.086,2.824,22.348,2.763,22.596,2.76z
		 M19.126,10.671l1.05,2.325h-2.438L19.126,10.671z M6.004,12.996c-1.98,0-3.6,1.619-3.6,3.6c0,1.981,1.619,3.603,3.6,3.603
		s3.6-1.62,3.6-3.603C9.604,14.615,7.984,12.996,6.004,12.996z M6.004,14.196c1.333,0,2.398,1.065,2.398,2.399
		s-1.065,2.398-2.398,2.398c-1.334,0-2.4-1.064-2.4-2.398C3.604,15.263,4.67,14.196,6.004,14.196z M13.802,14.196h8.999v5.399
		h-8.643l-0.188,0.17l-3.824,3.845c-0.133,0.134-0.291,0.188-0.432,0.188H2.104c-0.553,0-0.938-0.444-0.899-1.03
		c0.032-0.438,0.453-0.771,0.957-0.771h6.487l0.188-0.169l2.398-2.399l0.168-0.188v-2.645
		C11.402,15.228,12.436,14.196,13.802,14.196z"/>
</g>
</svg>
