<?xml version="1.0" encoding="utf-8"?>
<!-- Generator: Adobe Illustrator 14.0.0, SVG Export Plug-In . SVG Version: 6.00 Build 43363)  -->
<!DOCTYPE svg PUBLIC "-//W3C//DTD SVG 1.1//EN" "http://www.w3.org/Graphics/SVG/1.1/DTD/svg11.dtd">
<svg version="1.1" id="Layer_1" xmlns="http://www.w3.org/2000/svg" xmlns:xlink="http://www.w3.org/1999/xlink" x="0px" y="0px"
	 width="30px" height="30px" viewBox="0 0 30 30" enable-background="new 0 0 30 30" xml:space="preserve">
<g id="surface1">
	<path fill="#0564A0" d="M11.366,0C5.096,0,0,5.107,0,11.389c0,6.283,5.097,11.389,11.367,11.389
		c6.271,0,11.367-5.107,11.367-11.389c0-1.163-0.161-2.295-0.485-3.354c2.632,3.77,2.863,7.475,2.786,10.828
		c-0.056,2.438-0.322,4.685,0.057,6.632c0.377,1.945,1.544,3.584,4.036,4.439c0.211,0.107,0.464,0.08,0.647-0.066
		c0.187-0.147,0.265-0.389,0.206-0.618c-0.058-0.228-0.244-0.4-0.479-0.44c-2.19-0.748-2.912-1.88-3.233-3.541
		c-0.323-1.66-0.093-3.865-0.037-6.369c0.107-4.746-0.588-10.624-7.405-16.091c-0.349-0.307-0.715-0.599-1.104-0.861
		c-0.012-0.01-0.024-0.01-0.036-0.018C15.878,0.714,13.703,0,11.366,0z M11.366,1.198c2.111,0,4.062,0.644,5.684,1.743
		c0.336,0.243,0.646,0.487,0.952,0.73c2.162,1.868,3.534,4.629,3.534,7.718c0,5.636-4.546,10.19-10.171,10.19
		c-5.624,0-10.169-4.554-10.169-10.19S5.741,1.198,11.366,1.198z M11.366,2.099c-0.881,0-1.594,0.083-2.168,0.468
		c-0.576,0.384-0.86,1.08-0.86,1.855c0,0.95,0.62,1.695,1.233,2.229c0.309,0.267,0.623,0.478,0.916,0.637
		c0.295,0.16,0.51,0.281,0.879,0.281c0.37,0,0.584-0.122,0.879-0.281c0.294-0.159,0.606-0.37,0.916-0.637
		c0.614-0.534,1.233-1.279,1.233-2.229c0-0.775-0.285-1.47-0.859-1.855C12.96,2.182,12.248,2.099,11.366,2.099z M11.366,3.297
		c0.782,0,1.286,0.128,1.515,0.281c0.229,0.153,0.316,0.304,0.316,0.843c0,0.363-0.345,0.899-0.821,1.311
		c-0.238,0.207-0.481,0.394-0.691,0.506c-0.133,0.072-0.264,0.118-0.318,0.131c-0.047-0.014-0.174-0.054-0.318-0.131
		c-0.209-0.112-0.472-0.3-0.71-0.506C9.861,5.32,9.534,4.784,9.534,4.42c0-0.539,0.089-0.691,0.317-0.843S10.583,3.297,11.366,3.297
		z M4.767,6.406c-0.348,0.04-0.664,0.16-0.935,0.375C3.292,7.211,2.98,7.87,2.709,8.71c-0.271,0.838-0.393,1.545-0.206,2.21
		C2.69,11.586,3.263,12.087,4,12.325c0.901,0.293,1.79-0.083,2.485-0.505c0.349-0.211,0.655-0.443,0.898-0.674
		c0.243-0.231,0.41-0.398,0.523-0.75c0.116-0.354,0.079-0.606,0.019-0.937c-0.062-0.33-0.179-0.693-0.337-1.068
		C7.272,7.643,6.771,6.812,5.87,6.519C5.5,6.399,5.114,6.367,4.767,6.406z M17.404,6.406c-0.181,0.019-0.356,0.054-0.541,0.112
		c0,0.007,0,0.012,0,0.019c-0.9,0.292-1.402,1.104-1.721,1.855c-0.158,0.375-0.274,0.737-0.336,1.068
		c-0.061,0.33-0.117,0.583,0,0.937c0.112,0.354,0.3,0.518,0.542,0.749c0.243,0.232,0.55,0.464,0.896,0.675
		c0.697,0.422,1.585,0.798,2.487,0.505c0.735-0.238,1.307-0.739,1.495-1.404c0.188-0.666,0.047-1.373-0.226-2.211
		c-0.271-0.841-0.56-1.499-1.104-1.929c-0.269-0.215-0.604-0.335-0.951-0.375C17.774,6.388,17.587,6.388,17.404,6.406z M4.934,7.568
		C5.072,7.553,5.238,7.58,5.495,7.661C5.839,7.773,6.241,8.279,6.486,8.86C6.61,9.151,6.706,9.45,6.748,9.684
		c0.033,0.176,0.015,0.333,0.019,0.356c-0.042,0.054-0.126,0.147-0.225,0.244C6.37,10.45,6.138,10.625,5.869,10.79
		C5.33,11.117,4.7,11.295,4.354,11.183c-0.512-0.166-0.636-0.316-0.71-0.581C3.569,10.337,3.608,9.83,3.85,9.085
		C4.09,8.337,4.363,7.888,4.579,7.718C4.688,7.631,4.797,7.582,4.934,7.568z M17.573,7.568c0.28-0.047,0.418,0.021,0.58,0.15
		c0.214,0.17,0.47,0.621,0.71,1.367c0.241,0.745,0.3,1.252,0.226,1.517c-0.075,0.265-0.218,0.415-0.73,0.581
		c-0.343,0.112-0.955-0.047-1.495-0.375c-0.269-0.164-0.501-0.358-0.674-0.524c-0.111-0.108-0.188-0.237-0.224-0.281
		c0-0.063-0.008-0.183,0.018-0.319c0.044-0.234,0.138-0.534,0.263-0.824c0.246-0.581,0.65-1.087,0.991-1.199
		C17.365,7.619,17.48,7.584,17.573,7.568z M11.366,10.191c-0.66,0-1.196,0.536-1.196,1.198s0.536,1.199,1.196,1.199
		c0.661,0,1.197-0.535,1.197-1.199C12.563,10.727,12.027,10.191,11.366,10.191z M15.031,14.105
		c-0.189,0.004-0.377,0.016-0.543,0.037c-0.331,0.042-0.577,0.065-0.879,0.281c-0.3,0.216-0.413,0.449-0.561,0.749
		c-0.146,0.3-0.278,0.654-0.373,1.049c-0.194,0.792-0.271,1.755,0.28,2.529c0.447,0.633,1.086,1.033,1.775,1.012
		c0.689-0.02,1.32-0.37,2.037-0.881c0.72-0.512,1.268-1.001,1.515-1.646c0.248-0.646,0.075-1.373-0.375-2.004
		c0-0.008,0-0.012,0-0.019c-0.549-0.773-1.489-1.01-2.299-1.087C15.407,14.105,15.22,14.101,15.031,14.105z M7.626,14.198
		c-0.189,0.008-0.378,0.028-0.579,0.056c-0.807,0.11-1.727,0.382-2.244,1.18c-0.423,0.649-0.572,1.389-0.299,2.023
		c0.274,0.634,0.835,1.109,1.571,1.593c0.739,0.482,1.384,0.793,2.075,0.785c0.692-0.008,1.313-0.438,1.738-1.088
		c0.517-0.794,0.393-1.746,0.168-2.528c-0.111-0.391-0.25-0.753-0.411-1.049s-0.287-0.51-0.599-0.712
		c-0.308-0.202-0.544-0.216-0.878-0.244C8.003,14.203,7.816,14.191,7.626,14.198z M15.031,15.305
		c0.146-0.005,0.31,0.003,0.467,0.018c0.628,0.062,1.232,0.308,1.439,0.6c0.313,0.44,0.323,0.622,0.225,0.88
		c-0.098,0.258-0.446,0.65-1.084,1.104c-0.639,0.451-1.11,0.646-1.384,0.657c-0.273,0.009-0.455-0.068-0.767-0.507
		c-0.211-0.294-0.244-0.942-0.094-1.554c0.075-0.306,0.195-0.591,0.3-0.805c0.07-0.141,0.159-0.258,0.187-0.301
		c0.004-0.002,0.02-0.002,0.02,0c0.064-0.018,0.179-0.042,0.299-0.056C14.757,15.327,14.884,15.308,15.031,15.305z M7.646,15.397
		c0.147-0.007,0.292-0.009,0.412,0c0.135,0.013,0.257,0.037,0.318,0.057c0.011,0.026,0.119,0.142,0.206,0.3
		c0.114,0.211,0.25,0.501,0.336,0.805c0.175,0.607,0.157,1.235-0.038,1.537c-0.296,0.452-0.472,0.54-0.747,0.543
		c-0.276,0.003-0.746-0.171-1.403-0.6c-0.652-0.429-1.014-0.796-1.122-1.049c-0.107-0.253-0.105-0.449,0.188-0.898
		c0.199-0.305,0.778-0.573,1.402-0.658C7.354,15.413,7.499,15.405,7.646,15.397z"/>
</g>
</svg>
