<?xml version="1.0" encoding="utf-8"?>
<!-- Generator: Adobe Illustrator 14.0.0, SVG Export Plug-In . SVG Version: 6.00 Build 43363)  -->
<!DOCTYPE svg PUBLIC "-//W3C//DTD SVG 1.1//EN" "http://www.w3.org/Graphics/SVG/1.1/DTD/svg11.dtd">
<svg version="1.1" id="Layer_1" xmlns="http://www.w3.org/2000/svg" xmlns:xlink="http://www.w3.org/1999/xlink" x="0px" y="0px"
	 width="30px" height="30px" viewBox="0 0 30 30" enable-background="new 0 0 30 30" xml:space="preserve">
<path fill="#0564A0" d="M6.875,4.286C3.085,4.286,0,7.396,0,11.218v13.865c0,0.35,0.28,0.631,0.625,0.631h22.5
	c3.791,0,6.876-3.111,6.876-6.932V4.916c0-0.348-0.279-0.63-0.624-0.63H6.875z M6.875,5.547H28.75v13.235
	c0,3.141-2.512,5.672-5.626,5.672H1.249V11.218C1.249,8.079,3.761,5.547,6.875,5.547z M8.692,11.052
	c-1.593,0-2.666,0.876-2.666,2.18c0,1.085,0.603,1.723,1.957,2.067l0.939,0.244c0.974,0.247,1.407,0.619,1.407,1.21
	c0,0.69-0.686,1.19-1.631,1.19c-1.006,0-1.7-0.458-1.805-1.195l-0.01-0.069H5.809l0.006,0.085c0.1,1.322,1.198,2.176,2.797,2.176
	c1.709,0,2.813-0.902,2.813-2.299c-0.001-1.126-0.636-1.746-2.186-2.138l-0.767-0.205c-0.974-0.251-1.353-0.56-1.353-1.097
	c0-0.703,0.605-1.159,1.541-1.159c0.871,0,1.464,0.428,1.584,1.143l0.009,0.065h1.068l-0.006-0.084
	C11.238,11.921,10.158,11.052,8.692,11.052z M14.933,11.218l-2.725,7.458l-0.039,0.106h1.129l0.738-2.121h2.811l0.74,2.121h1.126
	l-2.766-7.564H14.933z M18.267,11.218v1.085h2.358v6.479h1.144v-6.479h2.303v-1.085H18.267z M15.44,12.614l1.051,3.017h-2.1
	L15.44,12.614z"/>
</svg>
