<?xml version="1.0" encoding="utf-8"?>
<!-- Generator: Adobe Illustrator 14.0.0, SVG Export Plug-In . SVG Version: 6.00 Build 43363)  -->
<!DOCTYPE svg PUBLIC "-//W3C//DTD SVG 1.1//EN" "http://www.w3.org/Graphics/SVG/1.1/DTD/svg11.dtd">
<svg version="1.1" id="Layer_1" xmlns="http://www.w3.org/2000/svg" xmlns:xlink="http://www.w3.org/1999/xlink" x="0px" y="0px"
	 width="30px" height="30px" viewBox="0 0 30 30" enable-background="new 0 0 30 30" xml:space="preserve">
<g id="surface1_3_">
	<path fill="#0564A0" d="M0,1.688v24.256h30.002V1.688H0z M1.357,3.07h27.289v21.493H1.357V3.07z M7.334,27.326
		c-0.372,0.033-0.646,0.376-0.613,0.756c0.035,0.38,0.369,0.66,0.742,0.628h15.081c0.242,0,0.471-0.13,0.597-0.345
		c0.118-0.216,0.118-0.479,0-0.696c-0.126-0.213-0.354-0.345-0.597-0.343H7.462c-0.021,0-0.042,0-0.064,0
		C7.377,27.326,7.356,27.326,7.334,27.326z"/>
</g>
<path fill="#0564A0" d="M11.297,4.569c0.002-0.414,0.34-0.747,0.753-0.743c0.415,0.004,0.747,0.341,0.744,0.754
	c-0.056,7.854,6.258,14.271,14.111,14.342c0.415,0.004,0.748,0.342,0.743,0.756c-0.002,0.415-0.34,0.748-0.755,0.741
	C18.213,20.342,11.236,13.25,11.297,4.569z M26.943,14.431c-5.374-0.049-9.694-4.44-9.656-9.814
	c0.003-0.414-0.328-0.751-0.743-0.754c-0.414-0.003-0.752,0.329-0.755,0.743c-0.042,6.201,4.94,11.267,11.141,11.323
	c0.414,0.004,0.751-0.328,0.755-0.743C27.688,14.773,27.356,14.436,26.943,14.431z M21.779,4.654
	c0.004-0.415-0.328-0.752-0.742-0.755c-0.413-0.002-0.752,0.328-0.756,0.743c-0.03,3.722,2.963,6.763,6.686,6.793
	c0.412,0.003,0.751-0.328,0.754-0.742c0.004-0.414-0.328-0.751-0.74-0.755C24.083,9.915,21.757,7.548,21.779,4.654z"/>
</svg>
