<?xml version="1.0" encoding="utf-8"?>
<!-- Generator: Adobe Illustrator 14.0.0, SVG Export Plug-In . SVG Version: 6.00 Build 43363)  -->
<!DOCTYPE svg PUBLIC "-//W3C//DTD SVG 1.1//EN" "http://www.w3.org/Graphics/SVG/1.1/DTD/svg11.dtd">
<svg version="1.1" id="Layer_1" xmlns="http://www.w3.org/2000/svg" xmlns:xlink="http://www.w3.org/1999/xlink" x="0px" y="0px"
	 width="30px" height="27.429px" viewBox="0 -16.608 30 27.429" enable-background="new 0 -16.608 30 27.429" xml:space="preserve">
<g id="surface1_23_">
	<path fill="#0564A0" d="M15-16.608c-1.807,0-3.281,1.462-3.281,3.254S13.193-10.1,15-10.1c1.809,0,3.281-1.462,3.281-3.254
		S16.809-16.608,15-16.608z M15-15.678c1.301,0,2.344,1.035,2.344,2.324S16.299-11.03,15-11.03s-2.344-1.035-2.344-2.324
		S13.699-15.678,15-15.678z M5.162-12.894c-0.166-0.004-0.32,0.08-0.408,0.218c-0.088,0.14-0.095,0.315-0.021,0.462
		c0,0,0.422,0.823,0.422,2.114c0,0.595-0.202,1.112-0.44,1.758C4.475-7.694,4.217-6.925,4.217-5.916c0,1.603,1.033,2.92,1.033,2.92
		c0.1,0.14,0.266,0.211,0.434,0.193c0.168-0.019,0.315-0.127,0.381-0.281C6.13-3.242,6.104-3.418,6-3.552
		c0,0-0.846-1.175-0.846-2.361c0-0.853,0.207-1.478,0.441-2.107c0.229-0.633,0.496-1.277,0.496-2.078
		c0-1.498-0.518-2.533-0.518-2.533C5.497-12.789,5.337-12.891,5.162-12.894z M24.852-12.894c-0.164-0.003-0.319,0.08-0.408,0.218
		c-0.09,0.14-0.094,0.315-0.02,0.462c0,0,0.417,0.823,0.417,2.114c0,0.595-0.202,1.112-0.438,1.758
		c-0.236,0.647-0.498,1.418-0.498,2.427c0,1.602,1.019,3.047,1.019,3.047c0.091,0.142,0.253,0.224,0.42,0.214
		c0.173-0.013,0.32-0.11,0.396-0.261c0.074-0.151,0.061-0.332-0.035-0.469c0,0-0.857-1.344-0.857-2.531
		c0-0.853,0.209-1.478,0.439-2.107c0.232-0.633,0.498-1.277,0.498-2.078c0-1.498-0.518-2.534-0.518-2.534
		C25.188-12.789,25.027-12.891,24.852-12.894z M1.378-11.5c-0.164,0.006-0.313,0.103-0.392,0.246
		C0.909-11.109,0.914-10.933,1-10.793c0,0,0.404,0.674,0.404,1.738c0,0.471-0.193,0.895-0.43,1.447
		c-0.24,0.553-0.51,1.229-0.51,2.109c0,1.429,1.042,2.658,1.042,2.658c0.101,0.139,0.271,0.213,0.442,0.193
		c0.172-0.021,0.318-0.137,0.38-0.297c0.06-0.16,0.026-0.342-0.086-0.473c0,0-0.839-1.142-0.839-2.082
		c0-0.701,0.199-1.209,0.432-1.744c0.23-0.535,0.507-1.101,0.507-1.814c0-1.307-0.532-2.212-0.532-2.212
		C1.721-11.418,1.555-11.51,1.378-11.5z M28.566-11.5c-0.164,0.006-0.313,0.103-0.393,0.246c-0.076,0.146-0.07,0.32,0.018,0.459
		c0,0,0.4,0.676,0.4,1.739c0,0.47-0.189,0.896-0.432,1.447c-0.237,0.553-0.508,1.228-0.508,2.11c0,1.428,1.041,2.656,1.041,2.656
		c0.158,0.2,0.451,0.236,0.656,0.078c0.201-0.158,0.238-0.451,0.078-0.652c0,0-0.838-1.144-0.838-2.084
		c0-0.701,0.202-1.209,0.434-1.742c0.229-0.536,0.508-1.102,0.508-1.815c0-1.307-0.535-2.212-0.535-2.212
		C28.91-11.418,28.743-11.51,28.566-11.5z M13.059-9.17c-1.275,0-2.396,0.856-2.721,2.08L9.002-2.039
		C8.99-2,8.986-1.957,8.986-1.916C8.949-1.783,8.906-1.649,8.906-1.5c0,0.396,0.16,0.74,0.414,1.008L8.152,0.584
		C8.109,0.623,8.074,0.67,8.049,0.725C7.727,1.057,7.5,1.487,7.5,1.987c0,0.16,0.023,0.305,0.053,0.43l1.389,6.896
		c0.166,0.855,0.931,1.508,1.84,1.508c1.031,0,1.875-0.836,1.875-1.858c0-0.135-0.018-0.264-0.045-0.383l-0.84-5.357l3.229-1.205
		l3.229,1.205l-0.84,5.357c-0.025,0.119-0.045,0.248-0.045,0.383c0,1.021,0.844,1.858,1.877,1.858c0.909,0,1.672-0.649,1.838-1.508
		l1.389-6.896c0.029-0.127,0.055-0.271,0.055-0.43c0-0.5-0.229-0.93-0.551-1.264c-0.023-0.055-0.059-0.1-0.104-0.139l-0.945-0.871
		c0.391-0.281,0.662-0.699,0.662-1.215c0-0.138-0.035-0.25-0.066-0.371c0.002-0.043-0.004-0.084-0.016-0.125l-1.35-5.097
		c-0.326-1.223-1.445-2.08-2.724-2.08h-4.354v0.005H13.059z M13.059-8.24h4.354c0.855,0,1.596,0.565,1.814,1.387l1.303,4.917
		l0.088-0.159c-0.064,0.115-0.076,0.249-0.033,0.372c0.027,0.083,0.042,0.156,0.042,0.226c0,0.336-0.231,0.605-0.548,0.678
		c-0.036,0.011-0.07,0.021-0.104,0.037c-0.06,0.021-0.109,0.057-0.154,0.1l0.035-0.07l-2.519,0.73c0-0.029,0.009-0.055,0.009-0.08
		c0-0.52-0.25-0.977-0.635-1.271l1.673-0.364c0.134-0.03,0.247-0.117,0.312-0.237c0.063-0.122,0.072-0.263,0.021-0.391l-0.938-2.327
		c-0.067-0.181-0.242-0.298-0.436-0.302c-0.158,0-0.304,0.078-0.392,0.209c-0.091,0.129-0.104,0.293-0.042,0.438l0.73,1.816
		l-2.636,0.572l-2.187-0.557l0.738-1.831c0.062-0.146,0.043-0.313-0.046-0.442c-0.093-0.129-0.245-0.205-0.403-0.199
		c-0.188,0.007-0.354,0.123-0.418,0.296l-0.938,2.325c-0.051,0.123-0.043,0.263,0.017,0.384c0.062,0.118,0.17,0.205,0.301,0.237
		l2.813,0.713c0.005,0.002,0.011,0.006,0.017,0.007l0.896,0.227c0.019,0.009,0.033,0.011,0.05,0.015
		c0.319,0.063,0.563,0.344,0.563,0.684c0,0.16-0.053,0.307-0.141,0.42c-0.016,0.012-0.022,0.021-0.035,0.035
		c-0.131,0.148-0.313,0.24-0.526,0.24c-0.05,0-0.099-0.008-0.155-0.02c-0.008-0.002-0.016-0.002-0.02-0.002l-4.971-1.342
		l0.092,0.166c-0.06-0.111-0.164-0.193-0.287-0.225C10.063-0.912,9.843-1.177,9.843-1.5c0-0.086,0.017-0.166,0.05-0.252
		C9.939-1.867,9.936-2,9.882-2.112l0.07,0.141l1.292-4.881C11.463-7.672,12.204-8.24,13.059-8.24z M10.098,0.063
		c0.006,0.004,0.014,0.004,0.02,0.006l4.308,1.164l-3.34,1.248c-0.207,0.078-0.333,0.289-0.298,0.51l0.9,5.73
		c0,0.012,0.004,0.023,0.006,0.033c0.017,0.074,0.024,0.141,0.024,0.205c0,0.52-0.413,0.93-0.938,0.93
		c-0.461,0-0.836-0.324-0.918-0.752c0-0.002,0-0.002-0.002-0.004L8.471,2.219C8.468,2.213,8.468,2.207,8.467,2.203
		c-0.018-0.08-0.029-0.15-0.029-0.219c0-0.284,0.131-0.529,0.338-0.705c0.07-0.059,0.121-0.139,0.147-0.229L8.889,1.172
		L10.098,0.063z M20.016,0.166l1.098,1.008L21.08,1.055c0.023,0.088,0.074,0.168,0.146,0.229c0.205,0.176,0.338,0.422,0.338,0.705
		c0,0.066-0.012,0.139-0.027,0.219c-0.002,0.004-0.002,0.01-0.004,0.016l-1.391,6.914c-0.002,0.002-0.002,0.002-0.002,0.004
		c-0.084,0.428-0.459,0.752-0.92,0.752c-0.521,0-0.938-0.41-0.938-0.93c0-0.064,0.008-0.131,0.023-0.205
		c0.002-0.01,0.006-0.021,0.006-0.033l0.9-5.73c0.035-0.221-0.09-0.432-0.299-0.51l-2.766-1.033c0.24-0.07,0.463-0.188,0.646-0.354
		L20.016,0.166z M0.469,1.057C0.211,1.057,0,1.266,0,1.522s0.211,0.465,0.469,0.465s0.469-0.209,0.469-0.465
		S0.727,1.057,0.469,1.057z M2.343,1.057c-0.258,0-0.469,0.209-0.469,0.465s0.211,0.465,0.469,0.465c0.259,0,0.47-0.209,0.47-0.465
		S2.604,1.057,2.343,1.057z M4.219,1.057c-0.258,0-0.469,0.209-0.469,0.465s0.211,0.465,0.469,0.465s0.469-0.209,0.469-0.465
		S4.477,1.057,4.219,1.057z M6.093,1.057c-0.258,0-0.469,0.209-0.469,0.465s0.211,0.465,0.469,0.465c0.259,0,0.47-0.209,0.47-0.465
		S6.354,1.057,6.093,1.057z M23.906,1.057c-0.258,0-0.469,0.209-0.469,0.465s0.211,0.465,0.469,0.465s0.469-0.209,0.469-0.465
		S24.164,1.057,23.906,1.057z M25.781,1.057c-0.258,0-0.469,0.209-0.469,0.465s0.211,0.465,0.469,0.465s0.469-0.209,0.469-0.465
		S26.039,1.057,25.781,1.057z M27.656,1.057c-0.258,0-0.469,0.209-0.469,0.465s0.211,0.465,0.469,0.465s0.469-0.209,0.469-0.465
		S27.914,1.057,27.656,1.057z M29.531,1.057c-0.258,0-0.469,0.209-0.469,0.465s0.211,0.465,0.469,0.465S30,1.778,30,1.522
		S29.789,1.057,29.531,1.057z"/>
</g>
</svg>
