<?xml version="1.0" encoding="utf-8"?>
<!-- Generator: Adobe Illustrator 14.0.0, SVG Export Plug-In . SVG Version: 6.00 Build 43363)  -->
<!DOCTYPE svg PUBLIC "-//W3C//DTD SVG 1.1//EN" "http://www.w3.org/Graphics/SVG/1.1/DTD/svg11.dtd">
<svg version="1.1" id="Layer_1" xmlns="http://www.w3.org/2000/svg" xmlns:xlink="http://www.w3.org/1999/xlink" x="0px" y="0px"
	 width="32px" height="32px" viewBox="-1 -4.34 32 32" enable-background="new -1 -4.34 32 32" xml:space="preserve">
<g>
	<path fill="none" d="M27.387,18.146c0.871-0.128,1.675-0.621,2.39-1.466c-0.701-0.646-1.462-0.984-2.267-1.006h-0.002
		c-1.703,0-2.982,1.231-2.994,1.243c-0.107,0.103-0.25,0.147-0.393,0.141c-0.024,0.004-0.046,0.014-0.068,0.014
		c-0.143,0-0.279-0.06-0.377-0.161c-0.096-0.1-0.15-0.232-0.148-0.373c0.002-0.142,0.061-0.271,0.162-0.368
		c0.012-0.012,1.186-1.181,1.188-2.751c0.002-0.895-0.375-1.77-1.123-2.604c-0.728,0.524-1.17,1.163-1.324,1.898
		c-0.203,0.963,0.104,1.929,0.4,2.584c0.262,0.355,0.42,0.649,0.477,0.767c0.047,0.096,0.052,0.195,0.041,0.292
		c0.015,0.183-0.053,0.366-0.211,0.478c-0.23,0.16-0.57,0.102-0.729-0.128c-0.006-0.007-0.238-0.339-0.486-0.86
		c-0.361-0.467-0.945-1.048-1.781-1.332c-0.844-0.286-1.799-0.204-2.827,0.245c0.343,1.099,1.204,1.796,2.567,2.073
		c0.355,0.071,0.74,0.106,1.141,0.116c0.486-0.103,0.908-0.129,1.16-0.129c0.122,0,0.199,0.005,0.215,0.006
		c0.286,0.021,0.504,0.272,0.486,0.561c-0.01,0.115-0.061,0.214-0.129,0.296c-0.077,0.123-0.197,0.217-0.35,0.246
		c-0.416,0.055-0.802,0.08-1.188,0.08c-0.029,0-0.059-0.004-0.088-0.004c-0.52,0.123-1.129,0.359-1.643,0.82
		c-0.654,0.587-1.049,1.435-1.174,2.525c1.107,0.117,2.027-0.084,2.744-0.599c1.176-0.846,1.467-2.31,1.494-2.474
		c0.025-0.179,0.145-0.32,0.299-0.395c0.092-0.075,0.207-0.122,0.332-0.122l0.131,0.017c0.137,0.035,0.25,0.121,0.32,0.242
		c0.072,0.12,0.089,0.262,0.057,0.396c-0.041,0.169-0.359,1.69,0.419,2.969c0.464,0.76,1.235,1.307,2.294,1.624
		c0.307-0.858,0.322-1.662,0.045-2.394c-0.305-0.802-0.908-1.394-1.432-1.787c-0.565-0.234-0.973-0.507-1.143-0.633
		c-0.126-0.098-0.195-0.223-0.211-0.363c-0.016-0.139,0.023-0.275,0.111-0.386c0.107-0.142,0.291-0.202,0.465-0.186
		c0.09-0.011,0.182-0.008,0.268,0.031c0.008,0.003,0.455,0.203,1.007,0.598C26.023,18.09,26.68,18.249,27.387,18.146z"/>
	<path fill="none" d="M13.558,3.617h6.481c0.24,0,0.443-0.208,0.443-0.455s-0.203-0.456-0.443-0.456h-6.481
		c-0.241,0-0.443,0.208-0.443,0.456S13.317,3.617,13.558,3.617z"/>
	<path fill="none" d="M8.998,13.203c0.779-0.253,1.797-0.31,2.783-0.313l0.11-0.004c1.2,0,2.317,0.196,3.397,0.387l0.16,0.028
		c0.647,0.116,1.276,0.229,1.897,0.304c0.016,0.002,0.033,0.004,0.049,0.006c1.094-0.377,2.137-0.414,3.09-0.088
		c0.246,0.083,0.471,0.188,0.682,0.303c0.035-0.001,0.071,0.002,0.107,0c0.023-0.001,0.053-0.004,0.076-0.006
		c-0.041-0.422-0.041-0.863,0.055-1.316c0.098-0.464,0.295-0.885,0.546-1.28c-0.669-0.985-1.669-1.634-2.231-1.833
		c-0.269-0.095-0.412-0.394-0.32-0.666c0.096-0.27,0.402-0.42,0.672-0.323c0.746,0.265,1.797,0.98,2.568,1.99
		c0.09-0.084,0.186-0.166,0.285-0.246c-0.972-1.112-2.199-1.943-3.563-2.397c-0.215-0.068-0.359-0.268-0.359-0.499V4.813h-4.296
		v2.423c0,0.229-0.146,0.43-0.364,0.5C11.707,8.576,9.754,10.65,8.998,13.203z"/>
	<rect x="15.596" y="0.188" fill="none" width="2.262" height="0.522"/>
	<path fill="none" d="M0.38,14.667c0.616-0.17,1.382-0.213,2.168-0.216h0.144c0.954,0,1.885,0.163,2.785,0.323l0.126,0.022
		c0.497,0.089,1.011,0.18,1.516,0.239c0.179,0.022,0.348,0.041,0.509,0.059c0.083-1.65,0.594-3.207,1.454-4.544
		c-0.103-0.041-0.206-0.082-0.295-0.116c-0.259-0.099-0.401-0.295-0.401-0.509V7.941H4.967v1.974c0,0.22-0.155,0.424-0.376,0.497
		C2.591,11.085,1.043,12.709,0.38,14.667z"/>
	<path fill="none" d="M3.756,6.719h5.646c0.058,0,0.142-0.113,0.142-0.29l0.002-0.138C9.546,6.117,9.461,6,9.404,6H3.756
		C3.698,6,3.613,6.115,3.613,6.293v0.136C3.613,6.606,3.698,6.719,3.756,6.719z"/>
	<path fill="none" d="M22.826,21.084c-0.059-0.17-0.113-0.34-0.153-0.505c-0.245,0.346-0.552,0.681-0.94,0.975l0.676-0.002
		C22.539,21.409,22.683,21.25,22.826,21.084z"/>
	<polygon fill="none" points="5.456,14.899 5.456,14.899 5.456,14.898 	"/>
	<path fill="none" d="M18.797,18.035c0.127-0.112,0.258-0.21,0.389-0.303c-1.652-0.477-2.688-1.559-2.992-3.167
		c-0.006-0.025-0.002-0.051-0.002-0.077c-0.322-0.047-0.629-0.099-0.927-0.154c-1.085-0.195-2.208-0.398-3.315-0.398l-0.163,0.004
		c-2.375,0.008-2.916,0.377-3.026,0.597c-0.009,0.018-0.028,0.025-0.039,0.041c-0.038,0.322-0.077,0.643-0.077,0.974
		c0,2.294,0.953,4.493,2.614,6.034l5.998-0.018C17.363,20.056,17.871,18.862,18.797,18.035z"/>
	<path fill="none" d="M9.871,21.645c-1.324-1.521-2.113-3.452-2.245-5.494c-0.203-0.022-0.409-0.046-0.629-0.071
		c-0.541-0.064-1.083-0.16-1.606-0.253c-0.946-0.169-1.822-0.326-2.708-0.326l-0.128-0.124l0,0.127
		c-2.019,0.007-2.343,0.334-2.394,0.434c-0.017,0.031-0.048,0.048-0.071,0.076c-0.03,0.253-0.063,0.506-0.063,0.763
		c0,1.701,0.691,3.295,2.113,4.869H9.871z"/>
	<path fill="#0564A0" d="M30.86,16.278c-0.989-1.067-2.108-1.623-3.325-1.653l-0.109-0.001c-0.521,0-1.01,0.097-1.447,0.24
		c-0.023-0.305-0.047-0.608-0.103-0.908c0.024-0.172,0.048-0.346,0.048-0.527c0.004-1.303-0.578-2.537-1.729-3.667
		c-0.099-0.096-0.229-0.131-0.359-0.132c-1.02-1.226-2.324-2.193-3.789-2.753v-2.23c0.818-0.004,1.482-0.667,1.482-1.482
		c0-0.818-0.668-1.483-1.49-1.483h-1.447c0.171-0.086,0.293-0.261,0.293-0.466v-1.528c0-0.29-0.234-0.525-0.523-0.525h-3.265
		c-0.288,0-0.523,0.235-0.523,0.525v1.528c0,0.206,0.122,0.38,0.294,0.466h-1.31c-0.822,0-1.49,0.666-1.49,1.483
		s0.668,1.483,1.49,1.483h0.099v2.212c-1.583,0.577-2.918,1.581-3.943,2.833c-0.102-0.043-0.2-0.089-0.305-0.128V7.747h0.167
		c0.657,0,1.191-0.602,1.191-1.433c0-0.74-0.534-1.341-1.191-1.341H3.779c-0.656,0-1.19,0.601-1.19,1.432
		c0,0.74,0.534,1.342,1.19,1.342h0.162v1.799C1.027,10.701-1,13.648-1,16.744c0,2.164,0.913,4.206,2.569,5.75
		c0.124,0.12,0.241,0.178,0.358,0.178h9.356c0.097,0,0.183-0.031,0.26-0.074h11.017c0.133,0,0.262-0.051,0.346-0.133
		c0.141-0.125,0.279-0.259,0.414-0.396c0.686,1.026,1.777,1.731,3.276,2.079l0.114,0.012c0.206,0,0.395-0.121,0.477-0.309
		c0.586-1.28,0.666-2.497,0.238-3.615c-0.146-0.381-0.348-0.711-0.566-1.015c0.023,0,0.043,0.004,0.065,0.004
		c0.192,0,0.394-0.014,0.601-0.04c1.287-0.181,2.422-0.936,3.373-2.239C31.047,16.745,31.031,16.464,30.86,16.278z M15.596,0.71
		V0.188h2.262V0.71H15.596z M13.558,2.707h6.481c0.24,0,0.443,0.208,0.443,0.456s-0.203,0.455-0.443,0.455h-6.481
		c-0.241,0-0.443-0.208-0.443-0.455S13.317,2.707,13.558,2.707z M24.506,17.291c-0.086-0.039-0.178-0.042-0.268-0.031
		c-0.174-0.017-0.357,0.044-0.465,0.186c-0.088,0.11-0.127,0.247-0.111,0.386c0.016,0.141,0.085,0.266,0.211,0.363
		c0.17,0.126,0.577,0.398,1.143,0.633c0.523,0.394,1.127,0.985,1.432,1.787c0.277,0.731,0.262,1.535-0.045,2.394
		c-1.059-0.317-1.83-0.864-2.294-1.624c-0.778-1.278-0.46-2.8-0.419-2.969c0.032-0.134,0.016-0.275-0.057-0.396
		c-0.07-0.121-0.184-0.207-0.32-0.242l-0.131-0.017c-0.125,0-0.24,0.047-0.332,0.122c-0.154,0.074-0.273,0.216-0.299,0.395
		c-0.027,0.164-0.318,1.628-1.494,2.474c-0.717,0.515-1.637,0.716-2.744,0.599c0.125-1.091,0.52-1.938,1.174-2.525
		c0.514-0.461,1.123-0.697,1.643-0.82c0.029,0,0.059,0.004,0.088,0.004c0.386,0,0.771-0.025,1.188-0.08
		c0.152-0.029,0.272-0.123,0.35-0.246c0.068-0.082,0.119-0.181,0.129-0.296c0.018-0.288-0.2-0.539-0.486-0.561
		c-0.016-0.001-0.093-0.006-0.215-0.006c-0.252,0-0.674,0.026-1.16,0.129c-0.4-0.01-0.785-0.045-1.141-0.116
		c-1.363-0.277-2.225-0.975-2.567-2.073c1.028-0.449,1.983-0.531,2.827-0.245c0.836,0.284,1.42,0.865,1.781,1.332
		c0.248,0.521,0.48,0.854,0.486,0.86c0.158,0.229,0.498,0.288,0.729,0.128c0.158-0.111,0.226-0.295,0.211-0.478
		c0.011-0.097,0.006-0.196-0.041-0.292c-0.057-0.117-0.215-0.411-0.477-0.767c-0.297-0.655-0.604-1.621-0.4-2.584
		c0.154-0.735,0.597-1.374,1.324-1.898c0.748,0.833,1.125,1.709,1.123,2.604c-0.002,1.57-1.176,2.739-1.188,2.751
		c-0.102,0.097-0.16,0.227-0.162,0.368c-0.002,0.141,0.053,0.273,0.148,0.373c0.098,0.102,0.234,0.161,0.377,0.161
		c0.022,0,0.044-0.01,0.068-0.014c0.143,0.007,0.285-0.038,0.393-0.141c0.012-0.012,1.291-1.243,2.994-1.243h0.002
		c0.805,0.021,1.565,0.36,2.267,1.006c-0.715,0.845-1.519,1.338-2.39,1.466c-0.707,0.103-1.363-0.057-1.874-0.258
		C24.961,17.494,24.514,17.294,24.506,17.291z M4.967,9.914V7.941h3.419v1.984c0,0.213,0.142,0.41,0.401,0.509
		c0.089,0.035,0.193,0.076,0.295,0.116c-0.859,1.338-1.371,2.894-1.454,4.544c-0.162-0.018-0.33-0.036-0.509-0.059
		c-0.505-0.06-1.019-0.15-1.516-0.239l-0.126-0.022c-0.9-0.16-1.831-0.323-2.785-0.323H2.548c-0.786,0.003-1.552,0.046-2.168,0.216
		c0.663-1.958,2.21-3.582,4.21-4.255C4.813,10.339,4.967,10.134,4.967,9.914z M14.706,7.236V4.813h4.296v2.436
		c0,0.231,0.145,0.431,0.359,0.499c1.363,0.455,2.591,1.285,3.563,2.397c-0.1,0.08-0.195,0.162-0.285,0.246
		c-0.771-1.009-1.822-1.725-2.568-1.99c-0.27-0.098-0.576,0.053-0.672,0.323c-0.092,0.272,0.052,0.571,0.32,0.666
		c0.563,0.199,1.563,0.848,2.231,1.833c-0.251,0.396-0.448,0.816-0.546,1.28c-0.096,0.453-0.096,0.895-0.055,1.316
		c-0.023,0.002-0.053,0.005-0.076,0.006c-0.036,0.002-0.072-0.001-0.107,0c-0.211-0.114-0.436-0.22-0.682-0.303
		c-0.953-0.326-1.996-0.289-3.09,0.088c-0.016-0.002-0.033-0.004-0.049-0.006c-0.621-0.074-1.25-0.188-1.897-0.304l-0.16-0.028
		c-1.081-0.19-2.198-0.387-3.397-0.387l-0.11,0.004c-0.986,0.004-2.004,0.061-2.783,0.313c0.756-2.553,2.708-4.626,5.344-5.467
		C14.56,7.666,14.706,7.465,14.706,7.236z M5.456,14.899L5.456,14.899L5.456,14.899L5.456,14.899z M11.258,21.585
		c-1.661-1.541-2.614-3.74-2.614-6.034c0-0.331,0.039-0.651,0.077-0.974c0.011-0.016,0.029-0.023,0.039-0.041
		c0.111-0.22,0.652-0.589,3.026-0.597l0.163-0.004c1.107,0,2.229,0.203,3.315,0.398c0.298,0.056,0.605,0.107,0.927,0.154
		c0,0.026-0.004,0.052,0.002,0.077c0.305,1.608,1.34,2.69,2.992,3.167c-0.131,0.093-0.262,0.19-0.389,0.303
		c-0.926,0.827-1.434,2.021-1.541,3.532L11.258,21.585z M0.09,16.013c0.022-0.028,0.054-0.045,0.071-0.076
		c0.051-0.1,0.375-0.427,2.394-0.434l0-0.127l0.128,0.124c0.886,0,1.762,0.157,2.708,0.326c0.523,0.093,1.065,0.188,1.606,0.253
		c0.221,0.025,0.427,0.049,0.629,0.071c0.132,2.042,0.921,3.974,2.245,5.494H2.14c-1.422-1.574-2.113-3.168-2.113-4.869
		C0.027,16.519,0.06,16.266,0.09,16.013z M22.673,20.579c0.04,0.165,0.095,0.335,0.153,0.505c-0.144,0.166-0.287,0.325-0.418,0.468
		l-0.676,0.002C22.121,21.26,22.428,20.925,22.673,20.579z M3.613,6.293C3.613,6.115,3.698,6,3.756,6h5.648
		c0.057,0,0.142,0.117,0.142,0.291L9.544,6.429c0,0.177-0.084,0.29-0.142,0.29H3.756c-0.058,0-0.143-0.113-0.143-0.29V6.293z"/>
</g>
</svg>
