<?xml version="1.0" encoding="utf-8"?>
<!-- Generator: Adobe Illustrator 14.0.0, SVG Export Plug-In . SVG Version: 6.00 Build 43363)  -->
<!DOCTYPE svg PUBLIC "-//W3C//DTD SVG 1.1//EN" "http://www.w3.org/Graphics/SVG/1.1/DTD/svg11.dtd">
<svg version="1.1" id="Layer_1" xmlns="http://www.w3.org/2000/svg" xmlns:xlink="http://www.w3.org/1999/xlink" x="0px" y="0px"
	 width="30px" height="30px" viewBox="0 0 30 30" enable-background="new 0 0 30 30" xml:space="preserve">
<g>
	<path fill="#0564A0" d="M14.879,0.006c-0.267,0.033-0.487,0.222-0.562,0.481h-0.021v0.085c-0.004,0.042-0.004,0.083,0,0.125v0.584
		c0,0.02,0,0.041,0,0.063v2.482h1.328V1.384c0.002-0.034,0.002-0.07,0-0.104V0.694c0.004-0.041,0.004-0.082,0-0.125V0.485h-0.021
		C15.514,0.168,15.205-0.037,14.879,0.006z M8.86,4.492C8.545,4.551,8.316,4.833,8.32,5.159v6.01h1.329V5.827h10.624v5.342h1.328
		v-6.01c0-0.369-0.298-0.667-0.666-0.667H8.985c-0.021,0-0.042,0-0.063,0S8.881,4.492,8.86,4.492z M4.336,11.837v3.465
		c0,1.585,0.49,3.077,1.328,4.339l-4.736,2.91l0.014,7.237l28.132,0.119v-7.356l-4.817-2.91c0.848-1.277,1.33-2.784,1.33-4.339
		v-3.465H4.336z M5.664,13.173h18.592v2.129c0,1.984-0.97,3.947-2.531,5.15l-1.098,0.854c-0.082,0.044-0.151,0.098-0.21,0.169
		l-5.456,4.216l-5.479-4.233c-0.008-0.01-0.013-0.017-0.02-0.024L9.4,21.395c-0.008-0.011-0.014-0.015-0.021-0.021l-0.041-0.042
		c-0.008,0-0.015,0-0.022,0l-1.119-0.876c-1.569-1.217-2.532-3.095-2.532-5.154V13.173z M7.656,15.177v0.729l2.657,0.605v-1.332
		L7.656,15.177L7.656,15.177z M19.609,15.177v1.334l2.656-0.607v-0.729L19.609,15.177L19.609,15.177z M6.516,20.705
		c0.275,0.29,0.554,0.57,0.872,0.815l0.561,0.436L2.344,26.88v-3.649L6.516,20.705z M23.427,20.705l4.15,2.524v3.651l-5.602-4.925
		l0.56-0.438C22.854,21.271,23.152,20.997,23.427,20.705z M9.027,22.77l5.539,4.277l0.395,0.314l0.395-0.314l5.54-4.273l8.178,7.134
		L0.941,29.789L9.027,22.77z"/>
	<polygon fill="#FFFFFF" points="29.194,30 0.807,29.908 1.775,29.085 27.63,28.649 	"/>
</g>
</svg>
