<?xml version="1.0" encoding="utf-8"?>
<!-- Generator: Adobe Illustrator 14.0.0, SVG Export Plug-In . SVG Version: 6.00 Build 43363)  -->
<!DOCTYPE svg PUBLIC "-//W3C//DTD SVG 1.1//EN" "http://www.w3.org/Graphics/SVG/1.1/DTD/svg11.dtd">
<svg version="1.1" id="Layer_1" xmlns="http://www.w3.org/2000/svg" xmlns:xlink="http://www.w3.org/1999/xlink" x="0px" y="0px"
	 width="30px" height="30px" viewBox="0 0 30 30" enable-background="new 0 0 30 30" xml:space="preserve">
<g>
	<path fill="none" d="M14.925,25.348l-0.368-0.291l-0.255-0.195c-0.353,0.297-0.446,0.824-0.181,1.248
		c0.146,0.23,0.37,0.391,0.631,0.449c0.24,0.055,0.485,0.014,0.688-0.113c0.204-0.129,0.346-0.33,0.4-0.57
		c0.061-0.262,0.012-0.531-0.135-0.764l0,0c-0.056-0.088-0.123-0.162-0.197-0.227l-0.218,0.172L14.925,25.348z"/>
	<path fill="none" d="M12.029,28.344c0.602-0.379,1.175-0.871,1.594-1.367c-0.114-0.113-0.213-0.236-0.296-0.369
		c-0.082-0.129-0.149-0.271-0.202-0.424c-0.632,0.164-1.326,0.469-1.923,0.846c-0.525,0.33-1.351,0.969-0.992,1.541
		C10.569,29.143,11.504,28.674,12.029,28.344z"/>
	<path fill="none" d="M19.801,28.814c0.078-0.129,0.16-0.34-0.064-0.691c-0.18-0.289-0.508-0.594-0.975-0.906
		c-0.623-0.414-1.387-0.773-2.049-0.963c-0.084,0.268-0.227,0.51-0.42,0.713c0.434,0.531,1.068,1.104,1.689,1.521
		c0.629,0.418,1.184,0.619,1.514,0.545C19.627,29.004,19.725,28.936,19.801,28.814z"/>
	<path fill="none" d="M3.171,24.902l5.219-4.561l-0.522-0.406c-0.299-0.229-0.556-0.488-0.812-0.754L3.171,21.52V24.902z"/>
	<path fill="none" d="M26.676,21.52l-3.867-2.338c-0.256,0.27-0.531,0.523-0.83,0.754l-0.523,0.406l5.221,4.559V21.52z"/>
	<polygon fill="#0564A0" points="8.12,14.733 10.594,15.295 10.594,14.059 8.12,14.059 	"/>
	<polygon fill="#0564A0" points="21.727,14.059 19.254,14.059 19.254,15.295 21.727,14.733 	"/>
	<path fill="#0564A0" d="M15.542,1.282c0.002-0.031,0.002-0.064,0-0.096V0.645c0.004-0.04,0.004-0.077,0-0.116V0.45h-0.02
		c-0.084-0.293-0.371-0.484-0.677-0.445c-0.25,0.029-0.453,0.207-0.522,0.445h-0.019v0.079c-0.006,0.039-0.006,0.077,0,0.116v2.899
		h1.237V1.282z"/>
	<path fill="#0564A0" d="M9.974,5.399h9.899v4.947h1.236V4.781c0-0.341-0.279-0.62-0.619-0.62H9.239
		c-0.293,0.056-0.506,0.318-0.501,0.62v5.565h1.236V5.399z"/>
	<g>
		<path fill="none" d="M13.125,26.184c-0.632,0.164-1.326,0.469-1.923,0.846c-0.525,0.33-1.351,0.969-0.992,1.541
			c0.358,0.572,1.294,0.104,1.818-0.227c0.602-0.379,1.175-0.871,1.594-1.367c-0.114-0.113-0.213-0.236-0.296-0.369
			C13.246,26.479,13.178,26.336,13.125,26.184z"/>
		<path fill="none" d="M17.982,28.488c0.629,0.418,1.184,0.619,1.514,0.545c0.131-0.029,0.229-0.098,0.305-0.219
			c0.078-0.129,0.16-0.34-0.064-0.691c-0.18-0.289-0.508-0.594-0.975-0.906c-0.623-0.414-1.387-0.773-2.049-0.963
			c-0.084,0.268-0.227,0.51-0.42,0.713C16.727,27.498,17.361,28.07,17.982,28.488z"/>
		<path fill="none" d="M3.171,24.902l5.219-4.561l-0.522-0.406c-0.299-0.229-0.556-0.488-0.812-0.754L3.171,21.52V24.902z"/>
		<path fill="none" d="M26.676,21.52l-3.867-2.338c-0.256,0.27-0.531,0.523-0.83,0.754l-0.523,0.406l5.221,4.559V21.52z"/>
		<g>
			<path fill="none" d="M15.706,25.111c-0.056-0.088-0.123-0.162-0.197-0.227l-0.218,0.172l-0.366,0.291l-0.368-0.291l-0.255-0.195
				c-0.353,0.297-0.446,0.824-0.181,1.248c0.146,0.23,0.37,0.391,0.631,0.449c0.24,0.055,0.485,0.014,0.688-0.113
				c0.204-0.129,0.346-0.33,0.4-0.57C15.901,25.613,15.852,25.344,15.706,25.111L15.706,25.111z"/>
			<path fill="none" d="M13.125,26.184c-0.632,0.164-1.326,0.469-1.923,0.846c-0.525,0.33-1.351,0.969-0.992,1.541
				c0.358,0.572,1.294,0.104,1.818-0.227c0.602-0.379,1.175-0.871,1.594-1.367c-0.114-0.113-0.213-0.236-0.296-0.369
				C13.246,26.479,13.178,26.336,13.125,26.184z"/>
			<path fill="none" d="M17.982,28.488c0.629,0.418,1.184,0.619,1.514,0.545c0.131-0.029,0.229-0.098,0.305-0.219
				c0.078-0.129,0.16-0.34-0.064-0.691c-0.18-0.289-0.508-0.594-0.975-0.906c-0.623-0.414-1.387-0.773-2.049-0.963
				c-0.084,0.268-0.227,0.51-0.42,0.713C16.727,27.498,17.361,28.07,17.982,28.488z"/>
			<path fill="none" d="M15.013,23.732l4.993-3.836c0.053-0.064,0.119-0.117,0.195-0.154l1.023-0.793
				c1.451-1.117,2.359-2.934,2.359-4.775v-1.972H6.262v1.972c0,1.908,0.897,3.65,2.359,4.775l1.043,0.811h0.019l0.039,0.039
				c0.009,0.008,0.013,0.012,0.02,0.02L9.8,19.857c0.007,0.006,0.011,0.012,0.02,0.018l5.018,3.863h0.013
				C14.852,23.738,14.927,23.734,15.013,23.732z"/>
			<path fill="none" d="M26.676,21.52l-3.867-2.338c-0.256,0.27-0.531,0.523-0.83,0.754l-0.523,0.406l5.221,4.559V21.52z"/>
			<path fill="none" d="M3.171,24.902l5.219-4.561l-0.522-0.406c-0.299-0.229-0.556-0.488-0.812-0.754L3.171,21.52V24.902z"/>
			<path fill="#0564A0" d="M14.925,25.348l0.366-0.291l0.218-0.172c-0.183-0.158-0.41-0.246-0.639-0.246
				c-0.166,0-0.332,0.043-0.479,0.137c-0.036,0.023-0.057,0.059-0.088,0.086l0.255,0.195L14.925,25.348z"/>
			<path fill="#0564A0" d="M27.893,27.26v-6.418l-1.217-0.771l-3.092-1.875c0.785-1.184,1.234-2.579,1.234-4.021v-3.209H5.027v3.209
				c0,1.469,0.458,2.854,1.236,4.021L3.171,20.07l-1.063,0.658l0.001,6.547l7.286-6.18l4.067,3.121l-0.068-0.141l0.75-0.209
				l0.072,0.258l0.334-0.119v-0.268h0.288L9.82,19.875c-0.009-0.006-0.013-0.012-0.02-0.018l-0.059-0.039
				c-0.007-0.008-0.011-0.012-0.02-0.02L9.683,19.76H9.665l-1.043-0.811c-1.461-1.125-2.359-2.867-2.359-4.775v-1.972h17.322v1.972
				c0,1.842-0.908,3.658-2.359,4.775l-1.023,0.793c-0.076,0.037-0.143,0.09-0.195,0.154l-4.993,3.836
				c0.083,0,0.177-0.002,0.222,0.002l0.353,0.127c0.056-0.039,0.128-0.059,0.224-0.027l0.232,0.072l-0.027,0.139l0.227,0.262
				l4.045-3.188L27.893,27.26z M7.868,19.936l0.522,0.406l-5.219,4.561V21.52l3.885-2.338C7.312,19.447,7.569,19.707,7.868,19.936z
				 M21.979,19.936c0.299-0.23,0.574-0.484,0.83-0.754l3.867,2.338V24.9l-5.221-4.559L21.979,19.936z"/>
			<path fill="#0564A0" d="M16.043,23.906l-0.232-0.072c-0.096-0.031-0.168-0.012-0.224,0.027l-0.353-0.127
				c-0.045-0.004-0.139-0.002-0.222-0.002c-0.086,0.002-0.162,0.006-0.162,0.006h-0.013h-0.288v0.268l-0.334,0.119l-0.072-0.258
				l-0.75,0.209l0.068,0.141l0.039,0.08c-0.231,0.252-0.384,0.57-0.447,0.93c-0.746,0.17-1.641,0.547-2.356,0.996
				c-0.811,0.51-1.302,1.055-1.463,1.623c-0.15,0.529,0.018,0.957,0.185,1.223c0.277,0.439,1.133,1.328,3.119,0.082
				c0.704-0.445,1.433-1.09,1.919-1.697c0.339,0.1,0.7,0.098,1.027,0.002c0.507,0.646,1.261,1.338,1.99,1.818
				C18.199,29.758,18.836,30,19.373,30c0.117,0,0.229-0.012,0.336-0.035c0.375-0.08,0.682-0.301,0.893-0.637
				c0.186-0.301,0.422-0.92-0.07-1.705c-0.25-0.404-0.674-0.805-1.26-1.193c-0.701-0.465-1.57-0.873-2.32-1.092
				c-0.031-0.01-0.064-0.02-0.107-0.031l-0.225-0.383c-0.014-0.055-0.045-0.137-0.109-0.236l-0.232-0.34l-0.035-0.041l-0.227-0.262
				L16.043,23.906z M12.029,28.344c-0.524,0.33-1.46,0.799-1.818,0.227c-0.359-0.572,0.467-1.211,0.992-1.541
				c0.597-0.377,1.291-0.682,1.923-0.846c0.052,0.152,0.12,0.295,0.202,0.424c0.083,0.133,0.182,0.256,0.296,0.369
				C13.204,27.473,12.631,27.965,12.029,28.344z M15.84,25.875c-0.055,0.24-0.196,0.441-0.4,0.57
				c-0.202,0.127-0.448,0.168-0.688,0.113c-0.262-0.059-0.486-0.219-0.631-0.449c-0.265-0.424-0.172-0.951,0.181-1.248
				c0.031-0.027,0.052-0.063,0.088-0.086c0.147-0.094,0.313-0.137,0.479-0.137c0.229,0,0.457,0.088,0.639,0.246
				c0.074,0.064,0.142,0.139,0.197,0.227l0,0C15.852,25.344,15.901,25.613,15.84,25.875z M16.713,26.254
				c0.662,0.189,1.426,0.549,2.049,0.963c0.467,0.313,0.795,0.617,0.975,0.906c0.225,0.352,0.143,0.563,0.064,0.691
				c-0.076,0.121-0.174,0.189-0.305,0.219c-0.33,0.074-0.885-0.127-1.514-0.545c-0.621-0.418-1.256-0.99-1.689-1.521
				C16.486,26.764,16.629,26.521,16.713,26.254z"/>
		</g>
	</g>
</g>
</svg>
