<?xml version="1.0" encoding="utf-8"?>
<!-- Generator: Adobe Illustrator 14.0.0, SVG Export Plug-In . SVG Version: 6.00 Build 43363)  -->
<!DOCTYPE svg PUBLIC "-//W3C//DTD SVG 1.1//EN" "http://www.w3.org/Graphics/SVG/1.1/DTD/svg11.dtd">
<svg version="1.1" id="Layer_1" xmlns="http://www.w3.org/2000/svg" xmlns:xlink="http://www.w3.org/1999/xlink" x="0px" y="0px"
	 width="30px" height="27.429px" viewBox="0 -16.608 30 27.429" enable-background="new 0 -16.608 30 27.429" xml:space="preserve">
<g id="surface1_24_">
	<path fill="#0564A0" d="M15.042-16.531c-1.802,0-3.272,1.458-3.272,3.245s1.471,3.245,3.272,3.245c1.804,0,3.272-1.458,3.272-3.245
		S16.846-16.531,15.042-16.531z M15.042-15.605c1.297,0,2.337,1.032,2.337,2.318s-1.042,2.318-2.337,2.318
		c-1.296,0-2.337-1.032-2.337-2.318S13.744-15.605,15.042-15.605z M13.105-9.114c-1.271,0-2.39,0.854-2.713,2.075L9.061-2.003
		C9.049-1.964,9.045-1.921,9.045-1.88c-0.037,0.133-0.08,0.266-0.08,0.415c0,0.395,0.16,0.737,0.413,1.005L8.213,0.613
		C8.17,0.652,8.135,0.699,8.11,0.754C7.789,1.085,7.563,1.513,7.563,2.011c0,0.16,0.023,0.304,0.053,0.429L9,9.318
		c0.166,0.853,0.928,1.503,1.835,1.503c1.028,0,1.87-0.833,1.87-1.852c0-0.134-0.018-0.263-0.045-0.382l-0.838-5.342l3.221-1.202
		l3.221,1.202l-0.838,5.342c-0.025,0.119-0.045,0.248-0.045,0.382c0,1.019,0.842,1.852,1.872,1.852c0.905,0,1.667-0.646,1.833-1.503
		l1.385-6.877c0.029-0.126,0.055-0.27,0.055-0.429c0-0.499-0.229-0.927-0.55-1.26c-0.023-0.055-0.059-0.1-0.103-0.139L20.93-0.256
		c0.39-0.28,0.66-0.697,0.66-1.211c0-0.138-0.035-0.249-0.065-0.37c0.002-0.043-0.004-0.083-0.016-0.125l-1.348-5.083
		c-0.324-1.219-1.44-2.074-2.716-2.074h-4.342L13.105-9.114L13.105-9.114z M13.105-8.187h4.342c0.854,0,1.592,0.564,1.81,1.383
		L20.556-1.9l0.088-0.159c-0.064,0.115-0.076,0.249-0.033,0.371c0.027,0.083,0.042,0.156,0.042,0.225
		c0,0.335-0.23,0.604-0.546,0.677c-0.036,0.011-0.07,0.021-0.104,0.036c-0.061,0.021-0.109,0.058-0.154,0.101l0.035-0.069
		l-2.513,0.728c0-0.029,0.01-0.056,0.01-0.08c0-0.519-0.249-0.975-0.634-1.267l1.668-0.364c0.135-0.029,0.247-0.116,0.312-0.235
		c0.063-0.122,0.072-0.263,0.021-0.39l-0.936-2.323c-0.067-0.18-0.241-0.297-0.436-0.301c-0.156,0-0.303,0.078-0.391,0.208
		c-0.091,0.128-0.103,0.292-0.042,0.436l0.728,1.812l-2.628,0.571L12.862-2.48l0.735-1.826c0.062-0.145,0.044-0.313-0.045-0.441
		c-0.092-0.129-0.244-0.205-0.402-0.199c-0.187,0.007-0.353,0.123-0.416,0.295l-0.937,2.319c-0.052,0.123-0.043,0.262,0.017,0.383
		c0.062,0.118,0.17,0.205,0.3,0.237l2.806,0.71C14.925-1,14.931-0.996,14.937-0.995l0.894,0.226
		c0.018,0.009,0.033,0.011,0.049,0.015c0.318,0.063,0.562,0.344,0.562,0.683c0,0.16-0.053,0.307-0.14,0.419
		c-0.016,0.013-0.021,0.021-0.035,0.035c-0.131,0.147-0.313,0.238-0.524,0.238c-0.051,0-0.1-0.008-0.155-0.02
		c-0.008-0.002-0.016-0.002-0.02-0.002l-4.955-1.338L10.7-0.573c-0.058-0.111-0.163-0.193-0.286-0.224
		c-0.298-0.082-0.516-0.348-0.516-0.668c0-0.085,0.018-0.166,0.051-0.251c0.044-0.115,0.04-0.248-0.012-0.359l0.069,0.14
		l1.288-4.868C11.515-7.62,12.254-8.187,13.105-8.187z M10.152,0.093c0.006,0.004,0.014,0.004,0.02,0.006l4.297,1.161l-3.331,1.245
		c-0.206,0.078-0.332,0.288-0.297,0.508l0.897,5.714c0,0.012,0.004,0.023,0.006,0.033c0.017,0.074,0.024,0.14,0.024,0.205
		c0,0.518-0.411,0.927-0.936,0.927c-0.46,0-0.834-0.323-0.915-0.75c0-0.002,0-0.002-0.002-0.004L8.531,2.243
		C8.528,2.238,8.528,2.232,8.527,2.228c-0.018-0.08-0.029-0.15-0.029-0.219c0-0.282,0.13-0.527,0.337-0.703
		c0.07-0.058,0.121-0.138,0.147-0.229L8.947,1.198L10.152,0.093z M20.044,0.197l1.097,1.005l-0.034-0.118
		c0.022,0.087,0.072,0.167,0.145,0.229c0.205,0.175,0.337,0.421,0.337,0.702c0,0.066-0.012,0.14-0.026,0.219
		c-0.002,0.004-0.002,0.01-0.004,0.016L20.17,9.144c-0.002,0.002-0.002,0.002-0.002,0.004c-0.083,0.427-0.457,0.75-0.917,0.75
		c-0.52,0-0.935-0.409-0.935-0.927c0-0.064,0.008-0.13,0.023-0.205c0.002-0.01,0.006-0.021,0.006-0.033l0.896-5.714
		c0.035-0.22-0.09-0.431-0.298-0.508L16.186,1.48c0.239-0.07,0.461-0.187,0.645-0.353L20.044,0.197z M0.551,1.085
		c-0.257,0-0.467,0.208-0.467,0.463s0.21,0.463,0.467,0.463c0.257,0,0.467-0.208,0.467-0.463S0.808,1.085,0.551,1.085z M2.419,1.085
		c-0.257,0-0.467,0.208-0.467,0.463s0.21,0.463,0.467,0.463c0.258,0,0.469-0.208,0.469-0.463S2.68,1.085,2.419,1.085z M4.291,1.085
		c-0.257,0-0.468,0.208-0.468,0.463s0.21,0.463,0.468,0.463c0.257,0,0.467-0.208,0.467-0.463S4.547,1.085,4.291,1.085z M6.159,1.085
		c-0.257,0-0.467,0.208-0.467,0.463s0.21,0.463,0.467,0.463c0.258,0,0.468-0.208,0.468-0.463S6.419,1.085,6.159,1.085z
		 M23.924,1.085c-0.258,0-0.468,0.208-0.468,0.463s0.21,0.463,0.468,0.463c0.257,0,0.467-0.208,0.467-0.463
		S24.181,1.085,23.924,1.085z M25.793,1.085c-0.257,0-0.467,0.208-0.467,0.463s0.21,0.463,0.467,0.463
		c0.258,0,0.468-0.208,0.468-0.463S26.051,1.085,25.793,1.085z M27.663,1.085c-0.257,0-0.468,0.208-0.468,0.463
		s0.211,0.463,0.468,0.463s0.468-0.208,0.468-0.463S27.92,1.085,27.663,1.085z M29.533,1.085c-0.257,0-0.468,0.208-0.468,0.463
		s0.211,0.463,0.468,0.463S30,1.803,30,1.548S29.79,1.085,29.533,1.085z"/>
</g>
<path fill="#0564A0" d="M24.003-1.703c-0.274,0-0.497-0.222-0.498-0.498l-0.023-10.002c0-0.389-0.316-0.705-0.705-0.705
	s-0.704,0.316-0.704,0.704c0,0.275-0.223,0.499-0.499,0.499c-0.275,0-0.498-0.223-0.498-0.499c0-0.938,0.764-1.701,1.701-1.701
	c0.938,0,1.702,0.763,1.702,1.701l0.023,10.001C24.503-1.927,24.28-1.703,24.003-1.703L24.003-1.703L24.003-1.703z"/>
<path fill="#0564A0" d="M26.494-4.163c-0.282-0.012-0.499-0.223-0.498-0.5l0.029-9.836c0-1.089,0.886-1.976,1.976-1.976
	c1.091,0,1.979,0.887,1.979,1.977c0,0.275-0.224,0.499-0.499,0.499s-0.499-0.223-0.499-0.499c0-0.54-0.439-0.979-0.98-0.979
	c-0.539,0-0.979,0.439-0.979,0.979L26.993-4.66C26.992-4.385,26.77-4.163,26.494-4.163L26.494-4.163z"/>
<path fill="#0564A0" d="M5.975-0.124C5.975-0.124,5.974-0.124,5.975-0.124c-0.276,0-0.499-0.225-0.499-0.5L5.5-10.626
	c0-0.938,0.764-1.7,1.702-1.7c0.938,0,1.701,0.763,1.701,1.701c0,0.275-0.223,0.499-0.499,0.499c-0.275,0-0.499-0.223-0.499-0.499
	c0-0.388-0.315-0.704-0.703-0.704c-0.389,0-0.705,0.316-0.705,0.704L6.474-0.622C6.473-0.346,6.25-0.124,5.975-0.124L5.975-0.124z"
	/>
<path fill="#0564A0" d="M3.484-2.583c-0.274,0-0.498-0.222-0.499-0.497l-0.028-9.837c0-0.542-0.439-0.981-0.979-0.981
	c-0.541,0-0.981,0.439-0.981,0.979c0,0.275-0.223,0.499-0.499,0.499C0.224-12.42,0-12.643,0-12.919c0-1.09,0.887-1.977,1.978-1.977
	c1.09,0,1.976,0.887,1.976,1.977l0.028,9.835c0.001,0.276-0.222,0.499-0.497,0.5C3.485-2.583,3.484-2.583,3.484-2.583L3.484-2.583z"
	/>
</svg>
