<?xml version="1.0" encoding="utf-8"?>
<!-- Generator: Adobe Illustrator 14.0.0, SVG Export Plug-In . SVG Version: 6.00 Build 43363)  -->
<!DOCTYPE svg PUBLIC "-//W3C//DTD SVG 1.1//EN" "http://www.w3.org/Graphics/SVG/1.1/DTD/svg11.dtd">
<svg version="1.1" id="Layer_1" xmlns="http://www.w3.org/2000/svg" xmlns:xlink="http://www.w3.org/1999/xlink" x="0px" y="0px"
	 width="30px" height="30px" viewBox="0 0 30 30" enable-background="new 0 0 30 30" xml:space="preserve">
<g>
	<path fill="none" d="M3.807,5.803c0,1.125,0.915,2.04,2.039,2.04c1.125,0,2.039-0.915,2.039-2.04c0-1.11-0.904-2.026-2.014-2.04
		L5.828,3.64l0.001,0.124C4.713,3.773,3.807,4.688,3.807,5.803z"/>
	<polygon fill="none" points="0.398,6.066 0.398,6.079 0.4,6.067 	"/>
	<polygon fill="none" points="3.191,3.409 3.191,3.419 3.194,3.409 	"/>
	<polygon fill="none" points="9.595,6.066 9.595,6.079 9.597,6.067 	"/>
	<polygon fill="none" points="9.692,9.91 9.692,9.919 9.695,9.91 	"/>
	<path fill="#0564A0" d="M3.125,8.083C3.039,8.095,2.958,8.135,2.893,8.201L1.752,9.344C1.635,9.44,1.583,9.591,1.616,9.739
		c0.033,0.146,0.149,0.262,0.297,0.295l0.085,0.009c0.119,0,0.231-0.053,0.302-0.138L3.447,8.76c0.118-0.113,0.154-0.29,0.09-0.438
		C3.477,8.176,3.365,8.116,3.125,8.083z"/>
	<path fill="#0564A0" d="M5.99,3C5.948,2.984,5.904,2.977,5.795,2.984L5.731,3.01l0-0.01C4.208,3.064,3.016,4.296,3.016,5.805
		c0,1.56,1.269,2.829,2.829,2.829c1.56,0,2.83-1.269,2.83-2.829C8.674,4.308,7.49,3.076,5.99,3z M5.87,3.764
		c1.11,0.014,2.014,0.929,2.014,2.04c0,1.125-0.915,2.04-2.039,2.04c-1.124,0-2.039-0.915-2.039-2.04c0-1.115,0.907-2.03,2.022-2.04
		L5.828,3.64L5.87,3.764z"/>
	<path fill="#0564A0" d="M8.8,8.203C8.726,8.125,8.634,8.092,8.443,8.084C8.297,8.11,8.179,8.215,8.133,8.363
		C8.094,8.508,8.137,8.66,8.243,8.758l1.142,1.139c0.076,0.094,0.188,0.147,0.308,0.147l0.087-0.009
		c0.146-0.034,0.262-0.15,0.294-0.295c0.035-0.147-0.018-0.299-0.127-0.387L8.8,8.203z M9.692,9.91c0.001,0,0.001,0,0.002,0
		l-0.002,0.01V9.91z"/>
	<path fill="#0564A0" d="M11.599,5.604c-0.072-0.12-0.204-0.194-0.344-0.194L9.537,5.41C9.321,5.442,9.17,5.644,9.201,5.859
		c0.025,0.196,0.195,0.344,0.394,0.344l1.66-0.002c0.141,0,0.272-0.075,0.344-0.196C11.672,5.882,11.672,5.729,11.599,5.604z
		 M9.595,6.066c0,0,0.001,0,0.002,0L9.595,6.079V6.066z"/>
	<path fill="#0564A0" d="M5.76,9.201C5.575,9.239,5.446,9.406,5.452,9.591v1.622c-0.002,0.144,0.07,0.273,0.196,0.349
		c0.061,0.034,0.129,0.052,0.198,0.052c0.069,0,0.138-0.018,0.199-0.053c0.125-0.074,0.198-0.204,0.195-0.346V9.597
		c0.006-0.111-0.039-0.225-0.124-0.304C6.042,9.225,5.946,9.19,5.76,9.201z"/>
	<path fill="#0564A0" d="M8.412,3.534l0.087,0.01c0.119,0,0.231-0.053,0.299-0.137L9.944,2.26c0.126-0.117,0.162-0.3,0.088-0.456
		C9.964,1.665,9.83,1.597,9.625,1.58C9.538,1.592,9.457,1.635,9.394,1.701L8.252,2.842C8.135,2.938,8.083,3.09,8.115,3.238
		C8.149,3.384,8.265,3.5,8.412,3.534z"/>
	<path fill="#0564A0" d="M5.847,2.415c0.069,0,0.137-0.018,0.199-0.053c0.124-0.073,0.198-0.206,0.195-0.346V0.401
		c0.006-0.113-0.04-0.227-0.123-0.304C6.044,0.028,5.951-0.01,5.758,0.002C5.575,0.044,5.446,0.211,5.452,0.395v1.619
		C5.45,2.155,5.524,2.289,5.649,2.363C5.709,2.397,5.777,2.415,5.847,2.415z"/>
	<path fill="#0564A0" d="M2.402,6.005c0.073-0.123,0.073-0.276,0-0.401C2.33,5.483,2.198,5.409,2.058,5.409L0.34,5.41
		C0.125,5.442-0.026,5.644,0.003,5.859C0.03,6.055,0.2,6.203,0.398,6.203l1.66-0.002C2.199,6.201,2.331,6.125,2.402,6.005z
		 M0.398,6.066c0,0,0.001,0,0.002,0L0.398,6.079V6.066z"/>
	<path fill="#0564A0" d="M2.883,3.399C2.96,3.491,3.073,3.543,3.191,3.543l0.089-0.01c0.145-0.034,0.261-0.15,0.294-0.295
		c0.035-0.148-0.018-0.3-0.127-0.389L2.301,1.703C2.227,1.623,2.128,1.578,1.94,1.582C1.794,1.611,1.677,1.717,1.633,1.862
		c-0.039,0.144,0.004,0.297,0.11,0.395L2.883,3.399z M3.191,3.409c0.001,0,0.001,0,0.002,0l-0.002,0.01V3.409z"/>
</g>
<g id="surface1_26_">
	<path fill="#0564A0" d="M1.425,15.818c0,0.34,0.05,0.67,0.159,0.975c-0.038-0.008-0.077-0.018-0.119-0.02
		c-0.346-0.053-0.666,0.182-0.733,0.521c-0.065,0.344,0.152,0.676,0.491,0.756l2.028,1.016l-1.014,3.572H0.776
		c-0.36,0-0.652,0.291-0.652,0.646v2.6c0,0.359,0.292,0.65,0.652,0.65h1.297v2.598c0,0.359,0.292,0.648,0.648,0.648H5.32
		c0.36,0,0.65-0.289,0.65-0.646v-2.6h18.186v2.6c0,0.357,0.291,0.646,0.648,0.646h2.598c0.357,0,0.65-0.289,0.65-0.646v-2.6h1.299
		c0.359,0,0.648-0.291,0.648-0.648v-2.6c0.004-0.336-0.256-0.615-0.59-0.646c-0.021,0-0.041,0-0.063,0H27.93
		c0.072-0.207,0.121-0.42,0.121-0.652c0-1.066-0.883-1.945-1.949-1.945h-1.563l-3.125-2.215c-0.387-0.273-0.85-0.404-1.299-0.383
		c-0.455,0.02-0.898,0.184-1.26,0.486l-2.252,1.867l-6.557-3.309c-0.321-0.162-0.655-0.26-0.995-0.283
		c-0.734-0.047-1.475,0.217-2.009,0.73c0.143-0.342,0.223-0.719,0.223-1.115c0-1.605-1.315-2.922-2.924-2.922
		C2.74,12.896,1.422,14.213,1.425,15.818z M5.97,15.818c0,0.902-0.72,1.623-1.625,1.623c-0.901,0-1.622-0.721-1.622-1.623
		c0-0.901,0.721-1.622,1.622-1.622C5.249,14.196,5.97,14.917,5.97,15.818z M9.46,17.645l6.758,3.43
		c0.016,0.012,0.027,0.02,0.045,0.021l0.018,0.023c0.064,0.055,0.141,0.098,0.223,0.121h0.021l0.082,0.039
		c0.092,0.045,0.201,0.068,0.303,0.063h7.266c0.125,0.039,0.262,0.039,0.387,0h1.541c0.369,0,0.65,0.279,0.65,0.646
		c0,0.371-0.283,0.65-0.65,0.65H13.538L8.263,19.98c-0.649-0.33-0.899-1.113-0.568-1.766c0.165-0.326,0.433-0.545,0.75-0.646
		c0.162-0.051,0.337-0.076,0.508-0.063C9.125,17.516,9.297,17.561,9.46,17.645z M6.295,19.127L5.218,18.6
		c0.474-0.152,0.899-0.418,1.237-0.771C6.285,18.25,6.241,18.697,6.295,19.127z M20.662,18.883l1.625,1.158H18.35l1.34-1.115
		c0.141-0.117,0.316-0.176,0.488-0.184C20.35,18.736,20.518,18.779,20.662,18.883z M10.352,22.639H3.594l0.852-2.963L10.352,22.639z
		 M28.701,25.236H1.422v-1.297h27.279V25.236z M26.754,28.482h-1.299v-1.947h1.299V28.482z M4.669,28.482H3.373v-1.947h1.298v1.947
		H4.669z"/>
</g>
</svg>
