<?xml version="1.0" encoding="utf-8"?>
<!-- Generator: Adobe Illustrator 14.0.0, SVG Export Plug-In . SVG Version: 6.00 Build 43363)  -->
<!DOCTYPE svg PUBLIC "-//W3C//DTD SVG 1.1//EN" "http://www.w3.org/Graphics/SVG/1.1/DTD/svg11.dtd">
<svg version="1.1" id="Layer_1" xmlns="http://www.w3.org/2000/svg" xmlns:xlink="http://www.w3.org/1999/xlink" x="0px" y="0px"
	 width="30px" height="29.999px" viewBox="0 -4.515 30 29.999" enable-background="new 0 -4.515 30 29.999" xml:space="preserve">
<path fill="#0564A0" d="M28.197,25.484c0.988,0,1.803-1.13,1.803-2.501V-2.015c0-1.37-0.814-2.5-1.803-2.5H1.799
	c-0.987,0-1.8,1.13-1.8,2.5v24.999c0,1.371,0.813,2.501,1.8,2.501H28.197z M28.197,23.816h-4.199v-8.333v-1.667V3.104h4.801v19.879
	C28.799,23.452,28.539,23.816,28.197,23.816z M22.799,23.816H18.6v-8.333h4.199V23.816z M17.398,23.816h-4.799V3.104h4.799V23.816z
	 M11.4,23.816H7.2v-8.333h4.2V23.816z M5.999,23.816h-4.2c-0.339,0-0.601-0.364-0.601-0.833V3.104h4.8v10.712v1.667V23.816z
	 M22.799,13.816H18.6V3.104h4.199V13.816z M11.4,13.816H7.2V3.104h4.2V13.816z M28.799,1.437H1.2v-3.452
	c0-0.47,0.26-0.834,0.602-0.834h26.398c0.34,0,0.602,0.364,0.602,0.834v3.452H28.799z"/>
</svg>
