<?xml version="1.0" encoding="utf-8"?>
<!-- Generator: Adobe Illustrator 14.0.0, SVG Export Plug-In . SVG Version: 6.00 Build 43363)  -->
<!DOCTYPE svg PUBLIC "-//W3C//DTD SVG 1.1//EN" "http://www.w3.org/Graphics/SVG/1.1/DTD/svg11.dtd">
<svg version="1.1" id="Layer_1" xmlns="http://www.w3.org/2000/svg" xmlns:xlink="http://www.w3.org/1999/xlink" x="0px" y="0px"
	 width="30px" height="30px" viewBox="0 0 30 30" enable-background="new 0 0 30 30" xml:space="preserve">
<g id="surface1">
	<path fill="#0564A0" d="M13.503,7.5c-0.297,0-0.547,0.125-0.799,0.234c-0.094-0.002-0.188,0.021-0.272,0.063l-7.04,3.512
		c-0.1,0.049-0.185,0.126-0.241,0.223c-0.543,0.378-0.947,0.955-0.947,1.668c0,1.153,0.947,2.1,2.099,2.1
		c0.251,0,0.461-0.092,0.677-0.171c0.094,0.002,0.188-0.016,0.271-0.057l5.471-2.576l1.327,2.154l-9.496,5.784
		c-2.308-0.836-3.541-1.975-3.541-1.975c-0.119-0.111-0.277-0.172-0.44-0.164c-0.244,0.009-0.457,0.166-0.539,0.395
		c-0.082,0.231-0.016,0.485,0.165,0.648c0,0,1.48,1.341,4.152,2.274c0.057,0.031,0.117,0.053,0.181,0.063
		c1.394,0.469,3.091,0.822,5.073,0.822c2.953,0,5.031-0.628,6.822-1.23c1.787-0.604,3.264-1.17,5.174-1.17
		c3.822,0,7.473,2.306,7.473,2.306c0.281,0.179,0.651,0.1,0.831-0.181c0.179-0.281,0.099-0.65-0.18-0.832
		c0,0-3.829-2.491-8.124-2.491c-0.229,0-0.452,0.012-0.672,0.024c0.043-0.203,0.074-0.412,0.074-0.625
		c0-0.472-0.18-0.883-0.375-1.273c0.004-0.116-0.029-0.234-0.094-0.332l-5.279-8.25c-0.002-0.002-0.005-0.006-0.006-0.009
		C14.874,7.873,14.226,7.5,13.503,7.5z M13.503,8.701c0.316,0,0.586,0.159,0.747,0.4l5.063,7.908l0.213-0.32
		c-0.131,0.199-0.135,0.454-0.006,0.655c0.176,0.281,0.281,0.606,0.281,0.958c0,0.285-0.07,0.548-0.188,0.786
		c-1.262,0.232-2.396,0.645-3.575,1.043c-1.763,0.598-3.65,1.171-6.437,1.171c-1.307,0-2.472-0.162-3.496-0.406l9.082-5.532
		c0.137-0.084,0.234-0.218,0.271-0.372c0.035-0.156,0.01-0.321-0.076-0.457l-1.921-3.125c-0.163-0.258-0.492-0.356-0.769-0.227
		l-5.422,2.556l0.26,0.521c-0.073-0.146-0.2-0.253-0.354-0.306c-0.152-0.048-0.319-0.035-0.461,0.041
		c-0.134,0.07-0.27,0.107-0.412,0.107c-0.506,0-0.9-0.395-0.9-0.9c0-0.363,0.21-0.664,0.515-0.809
		c0.026-0.012,0.047-0.025,0.07-0.04l6.789-3.387l-0.203-0.047c0.155,0.035,0.316,0.006,0.449-0.078
		C13.169,8.75,13.327,8.701,13.503,8.701z M23.698,11.101c-1.814,0-3.297,1.483-3.297,3.3c0,1.816,1.484,3.301,3.297,3.301
		c1.814,0,3.301-1.486,3.301-3.301C26.999,12.584,25.513,11.101,23.698,11.101z M23.698,12.301c1.17,0,2.102,0.933,2.102,2.1
		c0,1.167-0.932,2.1-2.102,2.1c-1.168,0-2.098-0.931-2.098-2.1C21.601,13.233,22.532,12.301,23.698,12.301z"/>
</g>
</svg>
