<?xml version="1.0" encoding="utf-8"?>
<!-- Generator: Adobe Illustrator 14.0.0, SVG Export Plug-In . SVG Version: 6.00 Build 43363)  -->
<!DOCTYPE svg PUBLIC "-//W3C//DTD SVG 1.1//EN" "http://www.w3.org/Graphics/SVG/1.1/DTD/svg11.dtd">
<svg version="1.1" id="Layer_1" xmlns="http://www.w3.org/2000/svg" xmlns:xlink="http://www.w3.org/1999/xlink" x="0px" y="0px"
	 width="30px" height="19.528px" viewBox="0 5.956 30 19.528" enable-background="new 0 5.956 30 19.528" xml:space="preserve">
<g>
	<g id="surface1_1_">
		<path fill="#0564A0" d="M5.284,24.138L5.284,24.138l19.967-0.061l0,0l0.558,0.021c0,0.056,0.668,0.021,0.668,0.021l0.668,0.022
			h1.541l0.336,0.045c0.33,0,0.979,0.021,0.979,0.021l-0.031-2.73c0-0.053-0.008-0.104-0.021-0.154v-0.038L26.354,6.421
			c-0.066-0.271-0.306-0.465-0.58-0.465h-5.226c-0.079-0.022-0.161-0.029-0.243-0.021c-0.021,0.006-0.037,0.013-0.056,0.021h-5.134
			c-0.061-0.017-0.126-0.022-0.188-0.021c-0.019,0.006-0.037,0.013-0.055,0.021H9.741C9.68,5.94,9.617,5.932,9.553,5.937
			C9.536,5.942,9.515,5.95,9.498,5.957H4.197c-0.019,0-0.038,0-0.055,0C3.89,5.98,3.681,6.168,3.618,6.424L0.04,21.247
			c-0.006,0.021-0.013,0.04-0.019,0.059v0.021c-0.006,0.015-0.015,0.024-0.019,0.039c0,0.007,0,0.013,0,0.021
			c0,0.011,0,0.024,0,0.037c0,0.009,0,0.013,0,0.021s0,0.023,0,0.036C0,21.512,0,21.548,0.002,21.58l0.032,2.632 M4.738,28.28
			c0.006-0.006,0.013-0.013,0.021-0.02c0-0.015,0-0.026,0-0.037c0-0.01,0-0.017,0-0.021 M4.666,7.496h4.251L7.268,21.157H1.371
			L4.666,7.496z M10.115,7.496h4.271v13.661H8.468L10.115,7.496z M15.585,7.496h4.271l1.647,13.661h-5.918V7.496z M21.055,7.496
			h4.254l3.293,13.661h-5.897L21.055,7.496z M5.786,24.262l-4.584,0.017v-1.878h27.569v2.012l-2.998-0.149l0.349,0.316
			c0-0.34-0.019-0.316-0.349-0.316h-0.485c-0.062-0.02-0.124-0.024-0.188-0.021c-0.019,0.006-0.035,0.013-0.057,0.021H4.91
			c-0.044-0.014-0.087-0.02-0.131-0.021c-0.038,0.002-0.075,0.01-0.113,0.021"/>
	</g>
	<path fill="#0564A0" d="M30,24.748c0,0.407-0.33,0.736-0.734,0.736H0.769c-0.408-0.001-0.736-0.331-0.736-0.736l0,0
		c0-0.406,0.328-0.735,0.736-0.735h28.497C29.67,24.01,30,24.341,30,24.748L30,24.748z"/>
	<rect x="0.033" y="23.577" fill="#0564A0" width="0.516" height="1.171"/>
	<rect x="29.499" y="23.777" fill="#0564A0" width="0.501" height="1.121"/>
</g>
</svg>
