<?xml version="1.0" encoding="utf-8"?>
<!-- Generator: Adobe Illustrator 14.0.0, SVG Export Plug-In . SVG Version: 6.00 Build 43363)  -->
<!DOCTYPE svg PUBLIC "-//W3C//DTD SVG 1.1//EN" "http://www.w3.org/Graphics/SVG/1.1/DTD/svg11.dtd">
<svg version="1.1" id="Layer_1" xmlns="http://www.w3.org/2000/svg" xmlns:xlink="http://www.w3.org/1999/xlink" x="0px" y="0px"
	 width="30px" height="20.883px" viewBox="0 -4.598 30 20.883" enable-background="new 0 -4.598 30 20.883" xml:space="preserve">
<g>
	<g id="surface1_29_">
		<path fill="#0564A0" d="M1.143,16.283l0.055-2.434c0.197,0.02,0.432,0.038,0.712,0.038c0.901,0,2.208-0.268,3.292-0.976
			c1.088,0.716,2.389,0.976,3.296,0.976c0.899,0,2.208-0.268,3.292-0.976c1.091,0.716,2.388,0.976,3.294,0.976
			c0.901,0,2.209-0.268,3.296-0.976c1.087,0.716,2.387,0.976,3.291,0.976c0.902,0,2.21-0.268,3.294-0.976
			c1.09,0.716,2.391,0.976,3.294,0.976c0.477,0,0.92-0.069,1.312-0.224c0.22-0.067,0.379-0.247,0.422-0.472
			c0.036-0.229-0.054-0.456-0.239-0.592c-0.183-0.132-0.431-0.146-0.633-0.044c-0.209,0.086-0.5,0.134-0.861,0.134
			c-0.789,0-2.124-0.247-2.901-0.879c-0.222-0.188-0.543-0.188-0.768,0c-0.776,0.632-2.127,0.879-2.923,0.879
			c-0.439,0-1.042-0.09-1.626-0.264c1.316-1.128,2.117-2.797,2.117-4.583v-1.2c0-0.33-0.273-0.598-0.603-0.598h-2.394v-2.94
			c0-0.33-0.27-0.597-0.599-0.597h-7.187c-0.018,0-0.037,0-0.058,0c-0.308,0.028-0.544,0.288-0.542,0.597v2.94H8.385
			c-0.038-0.006-0.075-0.006-0.111,0C7.989,6.1,7.783,6.35,7.787,6.644v1.2c0,1.797,0.812,3.507,2.209,4.623
			c-0.55,0.148-1.092,0.224-1.498,0.224c-0.791,0-2.123-0.247-2.9-0.879c-0.146-0.123-0.339-0.173-0.523-0.132
			c-0.094,0.023-0.175,0.067-0.246,0.132C4.052,12.443,2.7,12.69,1.909,12.69c-0.24,0-0.475-0.021-0.711-0.037V-4.598H0v20.881
			 M11.979,3.706h5.988v2.341h-5.988V3.706z M8.984,7.244H11.1c0.17,0.085,0.371,0.085,0.543,0h6.643
			c0.172,0.085,0.373,0.085,0.543,0h2.134v0.6c0,1.618-0.83,3.13-2.134,4.003c-0.016-0.013-0.04-0.021-0.056-0.036
			c-0.224-0.187-0.544-0.187-0.768,0c-0.777,0.632-2.13,0.879-2.921,0.879c-0.79,0-2.124-0.247-2.899-0.879
			c-0.224-0.187-0.548-0.187-0.767,0c-0.035,0.027-0.079,0.048-0.115,0.073c-0.01-0.006-0.023-0.015-0.036-0.017
			c-1.434-0.852-2.284-2.373-2.284-4.026L8.984,7.244L8.984,7.244z"/>
	</g>
	<rect x="0" y="-4.598" fill="#0564A0" width="30" height="1.173"/>
	<rect x="28.874" y="-4.597" fill="#0564A0" width="1.125" height="20.882"/>
</g>
</svg>
