<?xml version="1.0" encoding="utf-8"?>
<!-- Generator: Adobe Illustrator 14.0.0, SVG Export Plug-In . SVG Version: 6.00 Build 43363)  -->
<!DOCTYPE svg PUBLIC "-//W3C//DTD SVG 1.1//EN" "http://www.w3.org/Graphics/SVG/1.1/DTD/svg11.dtd">
<svg version="1.1" id="Layer_1" xmlns="http://www.w3.org/2000/svg" xmlns:xlink="http://www.w3.org/1999/xlink" x="0px" y="0px"
	 width="30px" height="26.168px" viewBox="0 -4.516 30 26.168" enable-background="new 0 -4.516 30 26.168" xml:space="preserve">
<g>
	<path fill="none" d="M19.086,4.01h2.394v0.654l-2.394,0.542V4.01z M10.707,5.206L8.313,4.664V4.01h2.394V5.206z"/>
	<polygon fill="#0564A0" points="8.313,4.664 10.707,5.206 10.707,4.01 8.313,4.01 	"/>
	<polygon fill="#0564A0" points="21.479,4.01 19.086,4.01 19.086,5.206 21.479,4.664 	"/>
	<path fill="#0564A0" d="M9.45-3.182h10.666v3.429h1.333v-4.095c0-0.367-0.3-0.667-0.666-0.667H8.785c-0.021,0-0.041,0-0.063,0
		c-0.021,0-0.042,0-0.064,0c-0.316,0.061-0.546,0.342-0.54,0.667v4.096H9.45V-3.182z"/>
	<g>
		<path fill="none" d="M4.956,20.394c1.344,0.398,3.846,0.398,5.188,0c0.287-0.09,0.539-0.201,0.689-0.311
			c0.042-0.029,0.07-0.051,0.087-0.068c-0.017-0.012-0.044-0.035-0.086-0.064c-0.15-0.107-0.402-0.217-0.691-0.305
			c-0.659-0.199-1.595-0.314-2.57-0.314v-0.236l0,0l-0.022,0.236c-0.977,0-1.923,0.115-2.596,0.314
			c-0.292,0.09-0.544,0.201-0.691,0.305l-0.081,0.072c0.016,0.012,0.041,0.033,0.078,0.059C4.417,20.193,4.669,20.306,4.956,20.394z
			"/>
		<path fill="none" d="M19.748,19.642c-0.285,0.088-0.537,0.199-0.688,0.307c-0.042,0.029-0.068,0.053-0.085,0.07
			c0.017,0.012,0.043,0.033,0.084,0.063c0.153,0.109,0.404,0.221,0.69,0.311c1.346,0.398,3.844,0.398,5.189,0
			c0.286-0.088,0.538-0.201,0.689-0.309c0.095-0.066,0.114-0.104,0.114-0.104l-0.131-0.045c-0.133-0.092-0.385-0.203-0.675-0.291
			C23.614,19.246,21.092,19.244,19.748,19.642z"/>
		<g>
			<path fill="none" d="M10.144,19.646c-0.659-0.199-1.595-0.314-2.57-0.314v-0.236l-0.022,0.236c-0.977,0-1.923,0.115-2.596,0.314
				c-0.292,0.09-0.544,0.201-0.691,0.305l-0.081,0.072c0.016,0.012,0.041,0.033,0.078,0.059c0.156,0.111,0.408,0.225,0.695,0.313
				c1.344,0.398,3.846,0.398,5.188,0c0.287-0.09,0.539-0.201,0.689-0.311c0.042-0.029,0.07-0.051,0.087-0.068
				c-0.017-0.012-0.044-0.035-0.086-0.064C10.684,19.844,10.432,19.734,10.144,19.646z"/>
			<path fill="none" d="M19.748,19.642c-0.285,0.088-0.537,0.199-0.688,0.307c-0.042,0.029-0.068,0.053-0.085,0.07
				c0.017,0.012,0.043,0.033,0.084,0.063c0.153,0.109,0.404,0.221,0.69,0.311c1.346,0.398,3.844,0.398,5.189,0
				c0.286-0.088,0.538-0.201,0.689-0.309c0.095-0.066,0.114-0.104,0.114-0.104l-0.131-0.045c-0.133-0.092-0.385-0.203-0.675-0.291
				C23.614,19.246,21.092,19.244,19.748,19.642z"/>
			<path fill="none" d="M7.549,18.39c1.086,0,2.106,0.127,2.871,0.357c0.298,0.09,0.558,0.197,0.776,0.322l1.654-5.732l-0.373-0.289
				l-6.461,5.429C6.492,18.422,7.01,18.39,7.549,18.39z"/>
			<path fill="none" d="M19.476,18.748c1.146-0.346,2.953-0.443,4.403-0.27l-6.494-5.512l-0.363,0.287L18.7,19.07
				C18.916,18.945,19.176,18.836,19.476,18.748z"/>
			<path fill="none" d="M20.994,8.74c1.404-1.081,2.281-2.838,2.281-4.619V2.214H6.518v1.909c0,1.845,0.868,3.53,2.281,4.618
				l1.01,0.784h0.02l0.037,0.037C9.873,9.569,9.876,9.575,9.883,9.58L9.94,9.617c0.007,0.008,0.011,0.013,0.019,0.019l0.966,0.743
				l0.009,0.007l0.293,0.225c0.001,0,0.002,0,0.003,0l2.657,2.019c0.018,0.024,0.036,0.045,0.054,0.068l0.755,0.581
				c0.094,0.027,0.185,0.057,0.295,0.057c0.018,0,0.029-0.008,0.046-0.008l1.237-0.952l0.939-0.722l1.369-1.052l0.845-0.649
				l0.387-0.297c0.05-0.063,0.115-0.111,0.188-0.15L20.994,8.74z"/>
			<path fill="#0564A0" d="M29.524,13.336c-0.624,0-0.947-0.439-1.424-1.157c-0.467-0.704-1.05-1.581-2.214-1.581
				s-1.746,0.877-2.214,1.582c-0.475,0.716-0.798,1.156-1.419,1.156c-0.62,0-0.943-0.439-1.419-1.156
				c-0.262-0.395-0.564-0.84-0.98-1.158l0.232-0.184l3.189-2.829c0.76-1.145,1.195-2.494,1.195-3.889V1.017H5.321v3.104
				c0,1.42,0.442,2.759,1.197,3.89l3.289,2.968l0.191,0.148c-0.348,0.308-0.609,0.702-0.843,1.053
				c-0.475,0.716-0.798,1.156-1.419,1.156c-0.62,0-0.943-0.439-1.418-1.156c-0.467-0.705-1.049-1.582-2.212-1.582
				c-1.161,0-1.742,0.876-2.209,1.581c-0.475,0.717-0.799,1.157-1.42,1.157C0.213,13.336,0,13.549,0,13.813
				c0,0.262,0.213,0.475,0.476,0.475c1.165,0,1.746-0.877,2.213-1.582c0.475-0.716,0.797-1.155,1.416-1.155
				c0.622,0,0.944,0.439,1.419,1.156c0.467,0.704,1.049,1.581,2.211,1.581c1.164,0,1.745-0.877,2.212-1.581
				c0.301-0.453,0.546-0.777,0.839-0.967l0.929,0.719l0.186-0.156l0.216,0.168c-0.029,0.009-0.062,0.01-0.084,0.031l-0.125,0.106
				l0.377,0.293l0.049-0.042c0.05-0.041,0.071-0.1,0.075-0.164l0.254,0.198l-0.186,0.156l0.373,0.289l0.071-0.246l0.214,0.165
				c-0.01,0.011-0.021,0.021-0.025,0.037l-0.058,0.201l0.395,0.306l0.049-0.169l0.022-0.077l0.202,0.157l-0.07,0.246l0.892,0.691
				l0.355,0.28l0.354-0.28l0.973-0.768l-0.071-0.246l0.202-0.16l0.065,0.227l0.006,0.021l0.394-0.311l-0.032-0.115l-0.002-0.005
				c-0.011-0.042-0.041-0.072-0.07-0.101l0.234-0.185l0.072,0.247l0.363-0.287l-0.229-0.194l0.245-0.121l0.12-0.096
				c-0.014,0.022-0.031,0.041-0.038,0.067c-0.021,0.08,0.008,0.16,0.064,0.215l0.37-0.291L17.861,12.5
				c-0.043-0.038-0.097-0.058-0.151-0.058c-0.011,0.001-0.017,0.001-0.024,0.001c-0.009,0.002-0.017,0.004-0.021,0.006
				c-0.009,0.002-0.014,0.008-0.021,0.011l0.279-0.22l0.187,0.156l0.954-0.751c0.362,0.164,0.631,0.536,0.979,1.061
				c0.467,0.704,1.049,1.581,2.212,1.581c1.164,0,1.745-0.877,2.213-1.581c0.475-0.716,0.798-1.156,1.42-1.156
				s0.945,0.439,1.422,1.156c0.468,0.704,1.051,1.581,2.216,1.581c0.263,0,0.476-0.213,0.476-0.475
				C30,13.549,29.787,13.336,29.524,13.336z M19.428,9.954l-0.845,0.649l-1.369,1.052l-0.939,0.722l-1.237,0.952
				c-0.017,0-0.028,0.008-0.046,0.008c-0.11,0-0.201-0.03-0.295-0.057l-0.755-0.581c-0.018-0.022-0.036-0.044-0.054-0.068
				l-2.657-2.019c-0.001,0-0.002,0-0.003,0l-0.293-0.225l-0.009-0.007L9.959,9.636C9.952,9.631,9.947,9.625,9.94,9.617L9.883,9.58
				c-0.006-0.005-0.01-0.011-0.018-0.019L9.828,9.525h-0.02L8.798,8.74C7.385,7.653,6.518,5.968,6.518,4.123V2.214h16.758v1.908
				c0,1.78-0.877,3.538-2.281,4.619l-0.992,0.766c-0.072,0.039-0.138,0.087-0.188,0.15L19.428,9.954z"/>
			<path fill="#0564A0" d="M13.518,13.554l-0.022,0.077L13.446,13.8l-0.395-0.306l0.058-0.201c0.004-0.015,0.015-0.025,0.025-0.037
				l-0.214-0.165l-0.071,0.246l-1.654,5.732c-0.218-0.125-0.478-0.232-0.776-0.322c-0.765-0.23-1.784-0.357-2.871-0.357
				c-0.539,0-1.057,0.031-1.533,0.088l6.461-5.429l0.186-0.156l-0.254-0.198c-0.004,0.063-0.024,0.123-0.075,0.164l-0.049,0.042
				l-0.377-0.293l0.125-0.106c0.023-0.021,0.056-0.022,0.084-0.031l-0.216-0.168l-0.186,0.156l-7.998,6.729
				c-0.067,0.047-0.136,0.1-0.186,0.15c-0.019,0.018-0.046,0.045-0.081,0.104c-0.16,0.191-0.238,0.381-0.238,0.578
				c0,0.313,0.174,0.602,0.503,0.834c0.245,0.172,0.568,0.322,0.961,0.441c0.775,0.23,1.794,0.357,2.871,0.357
				c1.075,0,2.094-0.127,2.87-0.357c0.386-0.115,0.709-0.264,0.962-0.443c0.295-0.213,0.462-0.461,0.487-0.699l1.782-6.195
				l0.07-0.246L13.518,13.554z M10.833,20.084c-0.15,0.109-0.402,0.221-0.689,0.311c-1.343,0.398-3.844,0.398-5.188,0
				c-0.287-0.088-0.539-0.201-0.695-0.313c-0.037-0.025-0.062-0.047-0.078-0.059l0.081-0.072c0.147-0.104,0.399-0.215,0.691-0.305
				c0.673-0.199,1.619-0.314,2.596-0.314l0.022-0.236v0.236c0.975,0,1.911,0.115,2.57,0.314c0.289,0.088,0.541,0.197,0.691,0.305
				c0.042,0.029,0.069,0.053,0.086,0.064C10.903,20.033,10.875,20.054,10.833,20.084z"/>
			<path fill="#0564A0" d="M17.643,12.461c0.008-0.003,0.013-0.009,0.021-0.011c0.005-0.002,0.013-0.004,0.021-0.006
				c0.008,0,0.014,0,0.024-0.001c0.055,0,0.108,0.02,0.151,0.058l0.057,0.047l-0.37,0.291c-0.057-0.056-0.085-0.136-0.064-0.215
				c0.007-0.026,0.024-0.045,0.038-0.067l-0.12,0.096l-0.245,0.121l0.229,0.194l6.494,5.512c-1.45-0.174-3.257-0.076-4.403,0.27
				c-0.3,0.088-0.56,0.197-0.775,0.322l-1.679-5.816l-0.072-0.247l-0.234,0.185c0.029,0.029,0.06,0.059,0.07,0.101l0.002,0.005
				l0.032,0.115l-0.394,0.311l-0.006-0.021l-0.065-0.227l-0.202,0.16l0.071,0.246l1.794,6.228c0.03,0.273,0.196,0.523,0.498,0.744
				c0.249,0.176,0.572,0.322,0.959,0.439c0.77,0.23,1.789,0.357,2.871,0.357c1.075,0,2.095-0.127,2.871-0.357
				c0.39-0.117,0.713-0.266,0.962-0.441c0.333-0.24,0.502-0.52,0.502-0.832c0-0.262-0.137-0.457-0.241-0.588l-0.075-0.092
				c-0.056-0.053-0.12-0.104-0.193-0.156l-8.063-6.787l-0.187-0.156L17.643,12.461z M25.612,19.935l0.131,0.045
				c0,0-0.02,0.037-0.114,0.104c-0.151,0.107-0.403,0.221-0.689,0.309c-1.346,0.398-3.844,0.398-5.189,0
				c-0.286-0.09-0.537-0.201-0.69-0.311c-0.041-0.029-0.067-0.051-0.084-0.063c0.017-0.018,0.043-0.041,0.085-0.07
				c0.15-0.107,0.402-0.219,0.688-0.307c1.344-0.398,3.866-0.396,5.189,0.002C25.228,19.732,25.479,19.844,25.612,19.935z"/>
		</g>
		
			<line fill="none" stroke="#333333" stroke-width="0" stroke-linecap="round" stroke-linejoin="round" x1="19.428" y1="9.954" x2="18.583" y2="10.603"/>
		
			<line fill="none" stroke="#333333" stroke-width="0" stroke-linecap="round" stroke-linejoin="round" x1="10.925" y1="10.38" x2="10.935" y2="10.387"/>
		
			<line fill="none" stroke="#333333" stroke-width="0" stroke-linecap="round" stroke-linejoin="round" x1="17.214" y1="11.655" x2="18.583" y2="10.603"/>
	</g>
</g>
</svg>
