<?xml version="1.0" encoding="utf-8"?>
<!-- Generator: Adobe Illustrator 14.0.0, SVG Export Plug-In . SVG Version: 6.00 Build 43363)  -->
<!DOCTYPE svg PUBLIC "-//W3C//DTD SVG 1.1//EN" "http://www.w3.org/Graphics/SVG/1.1/DTD/svg11.dtd">
<svg version="1.1" id="Layer_1" xmlns="http://www.w3.org/2000/svg" xmlns:xlink="http://www.w3.org/1999/xlink" x="0px" y="0px"
	 width="30px" height="30px" viewBox="0 0 30 30" enable-background="new 0 0 30 30" xml:space="preserve">
<g id="surface1">
	<path fill="#0564A0" d="M0,4v19.55h30V4H0z M1.2,5.222h27.601v17.107H1.2V5.222z M12.375,9.862c-0.065,0-0.129,0.023-0.188,0.057
		C12.066,9.988,12,10.124,12,10.262v7.771c0,0.139,0.07,0.274,0.188,0.344c0.058,0.036,0.121,0.039,0.187,0.039
		s0.147-0.001,0.206-0.039l6.601-3.893c0.118-0.07,0.188-0.205,0.188-0.346c0-0.138-0.069-0.256-0.188-0.325L12.58,9.92
		C12.521,9.886,12.44,9.862,12.375,9.862z M6.488,24.773c-0.33,0.029-0.572,0.332-0.543,0.668c0.031,0.337,0.327,0.585,0.657,0.556
		h16.802c0.215,0,0.417-0.115,0.528-0.306c0.106-0.189,0.106-0.423,0-0.615c-0.111-0.189-0.313-0.305-0.528-0.303H6.6
		c-0.019,0-0.037,0-0.056,0S6.507,24.773,6.488,24.773z"/>
</g>
</svg>
