<?xml version="1.0" encoding="utf-8"?>
<!-- Generator: Adobe Illustrator 14.0.0, SVG Export Plug-In . SVG Version: 6.00 Build 43363)  -->
<!DOCTYPE svg PUBLIC "-//W3C//DTD SVG 1.1//EN" "http://www.w3.org/Graphics/SVG/1.1/DTD/svg11.dtd">
<svg version="1.1" id="Layer_1" xmlns="http://www.w3.org/2000/svg" xmlns:xlink="http://www.w3.org/1999/xlink" x="0px" y="0px"
	 width="30px" height="30px" viewBox="0 0 30 30" enable-background="new 0 0 30 30" xml:space="preserve">
<path fill="#0564A0" d="M15,4.737c-2.997,0-5.676,1.335-7.534,3.421H4.355C1.957,8.158,0,10.133,0,12.557v0.488
	c-0.004,0.271,0.21,0.493,0.477,0.495c0.267,0.004,0.486-0.211,0.49-0.481c0-0.005,0-0.009,0-0.014v-0.488
	c0-1.895,1.512-3.422,3.388-3.422h3.3c0.142,0,0.276-0.062,0.368-0.169C9.71,6.978,12.204,5.714,15,5.714
	c2.396,0,4.567,0.929,6.203,2.444h-3.301c-1.864,0-3.388,1.537-3.388,3.421v1.466c-0.005,0.269,0.209,0.491,0.477,0.495
	c0.267,0.004,0.486-0.213,0.491-0.481c0-0.005,0-0.011,0-0.014V11.58c0-1.354,1.078-2.443,2.419-2.443h7.741
	c1.876,0,3.388,1.527,3.388,3.422v0.488c-0.003,0.271,0.21,0.492,0.477,0.496c0.269,0.004,0.487-0.212,0.492-0.482
	c0-0.005,0-0.01,0-0.014v-0.489c0-2.424-1.956-4.399-4.356-4.399H22.56C20.7,6.064,18.002,4.737,15,4.737z M24.849,11.796
	c-0.442,0-0.799,0.334-0.799,0.745l0,0c0,0.412,0.356,0.745,0.799,0.745c0.44,0,0.795-0.333,0.795-0.745
	C25.644,12.131,25.288,11.797,24.849,11.796L24.849,11.796z M11.725,11.797c-0.44,0-0.798,0.335-0.798,0.744
	c0,0.413,0.358,0.746,0.798,0.746c0.44,0,0.796-0.333,0.796-0.746C12.521,12.132,12.165,11.797,11.725,11.797z M8.888,12.129
	l-0.457,3.385l-0.569-3.372H6.517l-0.582,3.372l-0.444-3.371H3.965l1.276,5.759h1.343l0.583-3.549l0.597,3.549h1.358l1.264-5.774
	H8.888L8.888,12.129z M18.739,12.142v5.717h1.47v-1.745h2.786v-1.34h-2.786v-1.275H23.3v-1.355h-4.561V12.142z M11.024,13.708v4.166
	h1.372v-4.166H11.024z M24.146,13.708v4.166h1.373v-4.166H24.146z M0.477,16.461C0.21,16.464-0.004,16.686,0,16.956v0.489
	c0,2.424,1.957,4.398,4.355,4.398h3.111c1.858,2.087,4.537,3.42,7.534,3.42c3.001,0,5.7-1.325,7.561-3.42h3.083
	c2.401,0,4.356-1.975,4.356-4.398v-0.489c0.003-0.271-0.211-0.492-0.479-0.495c-0.265-0.004-0.485,0.212-0.49,0.481
	c0,0.005,0,0.009,0,0.014v0.489c0,1.895-1.511,3.42-3.388,3.42h-3.307h-7.885c0.634-0.622,1.034-1.484,1.034-2.443v-1.466
	c0.003-0.271-0.212-0.492-0.478-0.495c-0.005,0-0.01,0-0.015,0c-0.269,0.003-0.48,0.225-0.477,0.495v1.466
	c0,1.354-1.078,2.443-2.419,2.443c-0.049,0.001-0.097,0.011-0.144,0.025c-0.108,0.034-0.202,0.108-0.263,0.206
	c-0.008,0.015-0.016,0.027-0.021,0.043c-0.015,0.029-0.026,0.06-0.034,0.091c-0.005,0.017-0.009,0.032-0.012,0.049
	c-0.003,0.018-0.004,0.032-0.004,0.05c-0.002,0.017-0.002,0.032,0,0.05c0,0.032,0.004,0.065,0.012,0.097
	c0.009,0.032,0.019,0.062,0.032,0.091c0.009,0.017,0.017,0.029,0.023,0.045c0.008,0.016,0.017,0.024,0.027,0.039
	c0.01,0.017,0.021,0.027,0.029,0.041c0.034,0.034,0.071,0.064,0.114,0.088c0.015,0.011,0.028,0.017,0.043,0.022
	c0.03,0.015,0.061,0.023,0.092,0.031c0.032,0.01,0.066,0.015,0.103,0.015h9.105c-1.633,1.512-3.804,2.442-6.201,2.442
	c-2.795,0-5.291-1.264-6.977-3.249c-0.092-0.11-0.227-0.173-0.368-0.173h-3.3c-1.875,0-3.387-1.525-3.387-3.42v-0.489
	c0.003-0.271-0.209-0.491-0.477-0.495C0.486,16.461,0.481,16.461,0.477,16.461z"/>
<rect y="12.899" fill="#0564A0" width="0.968" height="4.202"/>
<rect x="29.031" y="12.818" fill="#0564A0" width="0.969" height="4.365"/>
<rect x="14.516" y="12.899" fill="#0564A0" width="0.97" height="4.202"/>
</svg>
